<svg xmlns="http://www.w3.org/2000/svg" viewBox="0 0 2000 2000"><path fill="#fff" d="M0 0h2000v2000H0z"/><path fill="none" stroke="green" stroke-linecap="round" stroke-linejoin="round" stroke-opacity=".54" stroke-width="10.057" d="M142.286 221.23h1611.135v1394.252H142.286z"/><path fill="none" stroke="#000" stroke-miterlimit="10" stroke-opacity=".9" stroke-width="4.023" d="M67.02 5.029v1826.374m0 0h1926.946" class="dcg-svg-axis-line" paint-order="fill stroke markers"/><g class="dcg-svg-axis-value" font-family="Arial" font-size="20" text-anchor="middle"><text x="31.818" y="928.833" fill="none" stroke="#fff" stroke-miterlimit="2" stroke-width="3" text-decoration="normal" transform="translate(-17.46 5.029) scale(2.01143)">0</text><text x="31.818" y="928.833" text-decoration="normal" transform="translate(-17.46 5.029) scale(2.01143)">0</text></g><path fill="none" stroke="#000" stroke-miterlimit="2" stroke-opacity=".9" stroke-width="4.023" d="M650.333 1823.357v16.092m583.314-16.092v16.092m585.325-16.092v16.092M58.974 1535.723h16.092m-16.092-295.68h16.092m-16.092-297.69h16.092m-16.092-295.68h16.092m-16.092-295.68h16.092M58.974 53.304h16.092" class="dcg-svg-tickmark" paint-order="fill stroke markers"/><g class="dcg-svg-axis-value" font-family="Arial" font-size="20" text-anchor="middle"><text x="332.422" y="928.833" fill="none" stroke="#fff" stroke-miterlimit="2" stroke-width="3" text-decoration="normal" transform="translate(-17.46 5.029) scale(2.01143)">0.5</text><text x="332.422" y="928.833" text-decoration="normal" transform="translate(-17.46 5.029) scale(2.01143)">0.5</text></g><g class="dcg-svg-axis-value" font-family="Arial" font-size="20" text-anchor="middle"><text x="622.465" y="928.833" fill="none" stroke="#fff" stroke-miterlimit="2" stroke-width="3" text-decoration="normal" transform="translate(-17.46 5.029) scale(2.01143)">1</text><text x="622.465" y="928.833" text-decoration="normal" transform="translate(-17.46 5.029) scale(2.01143)">1</text></g><g class="dcg-svg-axis-value" font-family="Arial" font-size="20" text-anchor="middle"><text x="912.508" y="928.833" fill="none" stroke="#fff" stroke-miterlimit="2" stroke-width="3" text-decoration="normal" transform="translate(-17.46 5.029) scale(2.01143)">1.5</text><text x="912.508" y="928.833" text-decoration="normal" transform="translate(-17.46 5.029) scale(2.01143)">1.5</text></g><g class="dcg-svg-axis-value" font-family="Arial" font-size="20" text-anchor="middle"><text x="23.478" y="766.514" fill="none" stroke="#fff" stroke-miterlimit="2" stroke-width="3" text-decoration="normal" transform="translate(-17.46 5.029) scale(2.01143)">0.5</text><text x="23.478" y="766.514" text-decoration="normal" transform="translate(-17.46 5.029) scale(2.01143)">0.5</text></g><g class="dcg-svg-axis-value" font-family="Arial" font-size="20" text-anchor="middle"><text x="31.818" y="619.196" fill="none" stroke="#fff" stroke-miterlimit="2" stroke-width="3" text-decoration="normal" transform="translate(-17.46 5.029) scale(2.01143)">1</text><text x="31.818" y="619.196" text-decoration="normal" transform="translate(-17.46 5.029) scale(2.01143)">1</text></g><g class="dcg-svg-axis-value" font-family="Arial" font-size="20" text-anchor="middle"><text x="23.478" y="471.877" fill="none" stroke="#fff" stroke-miterlimit="2" stroke-width="3" text-decoration="normal" transform="translate(-17.46 5.029) scale(2.01143)">1.5</text><text x="23.478" y="471.877" text-decoration="normal" transform="translate(-17.46 5.029) scale(2.01143)">1.5</text></g><g class="dcg-svg-axis-value" font-family="Arial" font-size="20" text-anchor="middle"><text x="31.818" y="324.559" fill="none" stroke="#fff" stroke-miterlimit="2" stroke-width="3" text-decoration="normal" transform="translate(-17.46 5.029) scale(2.01143)">2</text><text x="31.818" y="324.559" text-decoration="normal" transform="translate(-17.46 5.029) scale(2.01143)">2</text></g><g class="dcg-svg-axis-value" font-family="Arial" font-size="20" text-anchor="middle"><text x="23.478" y="177.24" fill="none" stroke="#fff" stroke-miterlimit="2" stroke-width="3" text-decoration="normal" transform="translate(-17.46 5.029) scale(2.01143)">2.5</text><text x="23.478" y="177.24" text-decoration="normal" transform="translate(-17.46 5.029) scale(2.01143)">2.5</text></g><g class="dcg-svg-axis-value" font-family="Arial" font-size="20" text-anchor="middle"><text x="31.818" y="29.922" fill="none" stroke="#fff" stroke-miterlimit="2" stroke-width="3" text-decoration="normal" transform="translate(-17.46 5.029) scale(2.01143)">3</text><text x="31.818" y="29.922" text-decoration="normal" transform="translate(-17.46 5.029) scale(2.01143)">3</text></g><path fill="none" stroke="#fa7e19" stroke-linecap="round" stroke-linejoin="round" stroke-miterlimit="10" stroke-width="10.057" d="M1566.318 2016.454v0l-113.248-22.262-126.89-23.571-148.398-26.19-193.552-32.739-392.973-66.13-119.163-21.608-90.39-17.678-70.557-15.06-58.339-13.75-47.186-12.44-37.339-11.131-30.688-10.476-24.693-9.822-19.397-9.166-14.81-8.512-10.921-7.857-7.695-7.203-5.496-7.202-2.879-5.893-1.355-5.238-.238-5.238.859-5.238 1.932-5.238 3.428-5.893 5.937-7.202 8.584-7.858 10.68-7.857 14.954-9.166 18.797-9.822 22.944-10.476 29.011-11.786 37.573-13.75 47.027-15.714 61.323-18.988 83.06-24.226 172.257-48.452 130.125-37.322 93.496-28.155 78.236-24.88 69.898-23.572 63.85-22.916 58.115-22.262 52.768-21.607 49.285-21.608 45.934-21.607 20.148-9.99m.596-.3v0l40.412-21.138 38.395-21.607 35.623-21.607 33.023-21.607 30.593-21.608 29.152-22.261 26.916-22.262 25.54-22.917 24.15-23.571 22.75-24.226 21.357-24.881 20.461-26.19 19.006-26.846 17.187-26.845 15.526-26.845 14.332-27.5 12.88-27.5 11.81-28.155 10.542-28.155 9.588-28.81 8.842-30.118 7.897-30.774 7.124-32.083 6.323-33.393 5.506-34.702 4.678-36.012 3.907-37.976 3.09-39.94 2.24-41.906 1.383-44.523.475-47.143-.48-50.417-1.517-54.345-2.622-58.274-3.86-63.511-5.232-69.405-3.19-37.321" class="dcg-svg-curve" paint-order="fill stroke markers"/><path fill="none" stroke="#fa7e19" stroke-linecap="round" stroke-linejoin="round" stroke-miterlimit="10" stroke-width="10.057" d="M2010.057 1879.013v0l-593.645-43.273-254.662-20.298-197.616-17.023-160.038-15.06-132.426-13.75-107.633-12.44-90.774-11.786-75.474-11.13-61.857-10.477-49.954-9.821-39.717-9.167-31.053-8.512-23.831-7.857-17.908-7.202-13.128-6.548-10.243-6.548-6.848-5.893-4.696-5.892-2.443-5.239-.856-4.583.293-4.583 1.396-4.583 2.887-5.239 5.445-6.547 7.361-6.548 10.152-7.202 14.543-8.512 18.444-9.167 24.194-10.476 30.63-11.786 39.496-13.75 53.235-17.023 72.295-21.607 123.721-35.358 161.721-46.488 95.332-28.809 79.943-25.536 69.53-23.571 63.493-22.917 57.775-22.262 52.447-21.607 48.974-21.607 45.637-21.607 16.133-8.026m.596-.3v0l40.412-21.138 38.395-21.607 35.623-21.607 33.023-21.607 30.594-21.608 29.153-22.261 26.919-22.262 25.547-22.917 24.159-23.571 22.766-24.226 21.381-24.881 20.499-26.19 19.06-26.846 17.259-26.845 15.983-27.5 14.42-27.5 13.294-28.155 11.944-28.155 10.955-28.81 10.213-30.118 9.253-30.774 8.501-32.083 7.736-33.393 6.964-34.702 6.3-36.667 5.598-38.63 4.944-41.25 4.237-43.87 3.541-47.142 2.83-51.072 2.08-55.655 1.298-61.547.45-68.678-.49-78.643-1.413-84.464" class="dcg-svg-curve" paint-order="fill stroke markers"/><path fill="#fa7e19" fill-opacity=".1" d="M2000 2016.454c-148.155-1.45-296.873 2.894-444.677-2.161-412.933-84.248-831.607-137.145-1244.176-223.077-85.176-23.236-179.823-34.567-251.068-90.357-31.136-37.861 26.213-67.968 55.203-81.845 183.872-78.53 381.128-118.582 571.68-177.375 185.15-54.603 370.196-113.583 543.37-199.936-313.396 156.767-660.797 221.4-990.19 334.193-36.387 17.816-91.657 27.409-104.887 70.618 19.093 42.568 76.926 45.655 116.465 59.534 265.55 56.852 537.477 74.786 807.31 100.546 313.383 27.389 627.263 48.462 940.97 71.686v138.174zm-769.072-775.051c188.464-92.224 363.432-236.252 439.113-437.566 93.768-247.865 75.466-519.067 56.453-778.234-.34-49.603 47.104-5.529 28.705 29.844 1.047 252.034 7.644 513.677-86.028 752.238-77.382 199.754-250.608 341.516-438.243 433.718z" class="dcg-svg-region" paint-order="stroke fill markers"/><path fill="none" stroke="#2d70b3" stroke-linecap="round" stroke-linejoin="round" stroke-miterlimit="10" stroke-opacity=".5" stroke-width="10.057" d="M68.019 1240.562v0l2.727 8.84.911 2.688" class="dcg-svg-curve" paint-order="fill stroke markers"/><path fill="none" stroke="#0082ff" stroke-linecap="round" stroke-linejoin="round" stroke-miterlimit="10" stroke-width="10.057" d="M144.777 1614.173c146.235-68.046 305.265-101.612 458.884-148.64 262.268-76.198 530.283-152.89 762.211-301.71 147.868-94.568 267.603-236.125 321.33-404.558 57.562-172.821 65.153-357.38 66.218-538.035" class="dcg-svg-curve" paint-order="fill stroke markers"/><path fill="none" stroke="#0082ff" stroke-linecap="round" stroke-linejoin="round" stroke-miterlimit="10" stroke-opacity=".5" stroke-width="10.057" d="M1753.42 221.23v0V5.029" class="dcg-svg-curve" paint-order="fill stroke markers"/><path fill="#2d70b3" d="M1768.506 221.23a15.086 15.086 0 1 1 0-.014l-7.543.014a7.543 7.543 0 1 0 0 .008z" class="dcg-svg-point" paint-order="stroke fill markers"/><path fill="#fff" d="M1760.963 221.23a7.543 7.543 0 1 1 0-.008z" class="dcg-svg-point" paint-order="stroke fill markers"/><path fill="none" stroke="#0082ff" stroke-linecap="round" stroke-linejoin="round" stroke-opacity=".4" stroke-width="10.057" d="m144.648 1600.763.13 13.41m-.123 12.794.122-12.794m-76.994 218.02c.234-40.641.153-81.296.584-121.928.847-15.404 3.681-31.233 12.201-44.378 5.468-9.13 13.003-16.861 21.03-23.77 13.157-11.12 28.078-19.77 43.18-27.944M71.656 1252.09c10.325 31.432 21.584 62.572 31.281 94.199 18.704 63.555 31.91 128.81 38.184 194.784 1.871 19.852 3.013 39.757 3.526 59.69m-76.48 231.23c4.782-2.938 9.522-5.933 13.676-9.737 4.49-3.617 8.512-7.823 12.252-12.199 3.97-4.701 7.731-9.554 10.905-14.835 3.38-4.723 6.07-9.842 8.549-15.081 3.246-6.448 6.618-12.84 8.945-19.693 3.533-8.604 5.994-17.596 8.648-26.494 2.614-10.968 5.32-21.917 7.103-33.058l.126-.691m0 0c.992-7.528 2.21-15.03 3.053-22.575.77-8.954 1.883-17.884 2.2-26.872.379-7.93.917-15.851 1.03-23.79"/><g paint-order="stroke fill markers"><path fill="#2d70b3" d="M159.863 1614.173a15.086 15.086 0 1 1 0-.015l-7.543.015a7.543 7.543 0 1 0 0 .01z" class="dcg-svg-point"/><path fill="#fff" d="M152.32 1614.173a7.543 7.543 0 1 1 0-.01z" class="dcg-svg-point"/></g></svg>