<svg xmlns="http://www.w3.org/2000/svg" viewBox="0 0 2000 2000"><path fill="#fff" d="M0 0h2000v2000H0z" class="dcg-svg-background"/><path fill="none" stroke="#000" stroke-miterlimit="10" stroke-opacity=".9" stroke-width="4" d="M36 0v2060" class="dcg-svg-axis-line" paint-order="fill stroke markers"/><path fill="none" stroke="#000" stroke-miterlimit="2" stroke-opacity=".9" stroke-width="4" d="M668 2052v16m632-16v16m632-16v16M28 1692h16m-16-368h16M28 954h16M28 586h16M28 218h16" class="dcg-svg-tickmark" paint-order="fill stroke markers"/><text x="667.8" y="1986.248" fill="none" stroke="#fff" stroke-miterlimit="2" stroke-width="6" font-family="Arial" font-size="34" text-anchor="middle" text-decoration="normal">0.5</text><text x="667.8" y="1986.248" fill="#969696" stroke-width="2" font-family="Arial" font-size="34" text-anchor="middle" text-decoration="normal">0.5</text><text x="1300.139" y="1986.248" fill="none" stroke="#fff" stroke-miterlimit="2" stroke-width="6" font-family="Arial" font-size="34" text-anchor="middle" text-decoration="normal">1</text><text x="1300.139" y="1986.248" fill="#969696" stroke-width="2" font-family="Arial" font-size="34" text-anchor="middle" text-decoration="normal">1</text><text x="1932.479" y="1986.248" fill="none" stroke="#fff" stroke-miterlimit="2" stroke-width="6" font-family="Arial" font-size="34" text-anchor="middle" text-decoration="normal">1.5</text><text x="1932.479" y="1986.248" fill="#969696" stroke-width="2" font-family="Arial" font-size="34" text-anchor="middle" text-decoration="normal">1.5</text><text x="29.632" y="1700.743" fill="none" stroke="#fff" stroke-miterlimit="2" stroke-width="6" font-family="Arial" font-size="34" text-anchor="middle" text-decoration="normal">0.5</text><text x="29.632" y="1700.743" fill="#969696" stroke-width="2" font-family="Arial" font-size="34" text-anchor="middle" text-decoration="normal">0.5</text><text x="16.005" y="1332.307" fill="none" stroke="#fff" stroke-miterlimit="2" stroke-width="6" font-family="Arial" font-size="34" text-anchor="middle" text-decoration="normal">1</text><text x="16.005" y="1332.307" stroke-width="2" font-family="Arial" font-size="34" text-anchor="middle" text-decoration="normal">1</text><text x="29.632" y="963.871" fill="none" stroke="#fff" stroke-miterlimit="2" stroke-width="6" font-family="Arial" font-size="34" text-anchor="middle" text-decoration="normal">1.5</text><text x="29.632" y="963.871" fill="#969696" stroke-width="2" font-family="Arial" font-size="34" text-anchor="middle" text-decoration="normal">1.5</text><text x="16.005" y="595.435" fill="none" stroke="#fff" stroke-miterlimit="2" stroke-width="6" font-family="Arial" font-size="34" text-anchor="middle" text-decoration="normal">2</text><text x="16.005" y="595.435" stroke-width="2" font-family="Arial" font-size="34" text-anchor="middle" text-decoration="normal">2</text><text x="29.632" y="227" fill="none" stroke="#fff" stroke-miterlimit="2" stroke-width="6" font-family="Arial" font-size="34" text-anchor="middle" text-decoration="normal">2.5</text><text x="29.632" y="227" fill="#969696" stroke-width="2" font-family="Arial" font-size="34" text-anchor="middle" text-decoration="normal">2.5</text><path fill="none" d="M118.914 1788.85v-10.413l15.231-7.16 34.578-14.97 42.676-16.922 53.102-19.526 67.833-23.43 94.864-31.242 309.359-100.884 89.906-31.241 76.63-27.987 69.29-26.686 62.346-25.383 57.366-24.733 54.053-24.733 49.512-24.082 46.529-24.082 43.657-24.081 15.193-8.76m.097-.057 39.369-23.726 37.413-24.082 34.984-24.082 33.544-24.733 31.27-24.733 29.875-25.384 28.457-26.034 27.03-26.685 25.597-27.337 24.174-27.987 22.763-28.638 21.828-29.94 19.97-29.939 18.26-29.94 17.029-30.59 15.515-30.59 14.121-30.591 13.097-31.242 12.099-31.892 11.128-32.543 10.188-33.194 9.444-34.496 8.526-35.146 7.77-36.449 7-37.75 6.314-39.702 5.494-41.005 4.743-42.957 3.957-44.909 3.184-47.513 2.358-50.116 1.49-52.72.593-55.974-.358-59.88-1.374-63.784-.937-29.29" class="dcg-svg-curve" paint-order="fill stroke markers"/><path fill="none" d="m134.583 1788.85 12.707-9.111 15.936-9.763 20.677-11.065 26.018-12.366 33.419-14.32 41.519-16.27 53.691-19.527 70.286-24.082 112.883-37.099 190.073-62.483 94.557-32.543 79.313-28.638 71.849-27.336 64.719-26.034 59.549-25.384 54.658-24.733 50.088-24.082 47.085-24.081 44.191-24.082 23.238-13.316m.097-.057 39.369-23.726 37.413-24.082 34.984-24.082 33.544-24.733 31.27-24.733 29.876-25.384 28.46-26.034 27.033-26.685 25.606-27.337 24.186-27.987 22.782-28.638 21.856-29.94 20.01-29.939 18.694-30.59 17.07-30.591 15.577-30.59 14.497-31.242 13.451-31.892 12.441-32.543 11.468-33.194 10.727-34.496 9.793-35.147 9.055-36.448 8.446-38.4 7.667-39.703 7-41.656 6.304-43.607 5.665-46.212 4.982-48.814 4.32-52.07 3.652-55.974 2.953-60.53 1.215-41.004V56.905" class="dcg-svg-curve" paint-order="fill stroke markers"/><path fill="#fa7e19" fill-opacity=".5" d="M118.914 1788.85v-10.413l15.231-7.16 34.578-14.97 42.676-16.922 53.102-19.526 67.833-23.43 94.864-31.242 309.359-100.884 89.906-31.241 76.63-27.987 69.29-26.686 62.346-25.383 57.366-24.733 54.053-24.733 49.512-24.082 46.529-24.082 43.657-24.081 15.193-8.76-23.238 13.316-44.191 24.081-47.085 24.082-50.088 24.082-54.658 24.733-59.549 25.384-64.72 26.034-71.848 27.336-79.313 28.638-94.557 32.543-190.073 62.483-112.884 37.1-70.285 24.081-53.691 19.526-41.52 16.272-33.418 14.319-26.018 12.366-20.677 11.065-15.936 9.763-12.707 9.112h-15.67m1182.223-466.373 39.369-23.727 37.413-24.082 34.983-24.081 33.545-24.733 31.27-24.733 29.875-25.384 28.457-26.034 27.03-26.685 25.597-27.337 24.174-27.987 22.763-28.638 21.828-29.94 19.97-29.939 18.26-29.94 17.029-30.59 15.515-30.59 14.121-30.591 13.097-31.242 12.099-31.892 11.128-32.543 10.188-33.194 9.444-34.496 8.526-35.146 7.77-36.449 7-37.75 6.314-39.702 5.494-41.005 4.743-42.957 3.957-44.909 3.184-47.513 2.358-50.116 1.49-52.72.593-55.974-.358-59.88-1.374-63.784-.937-29.29h15.45v127.57l-1.214 41.004-2.953 60.53-3.652 55.975-4.32 52.069-4.983 48.814-5.665 46.212-6.303 43.607-7 41.656-7.667 39.702-8.446 38.401-9.056 36.448-9.792 35.147-10.727 34.496-11.468 33.194-12.44 32.543-13.452 31.892-14.497 31.241-15.578 30.59-17.069 30.591-18.694 30.591-20.01 29.94-21.856 29.94-22.783 28.637-24.185 27.987-25.606 27.337-27.033 26.685-28.46 26.034-29.876 25.384-31.27 24.733-33.544 24.733-34.984 24.082-37.413 24.082-39.369 23.726" class="dcg-svg-region" paint-order="stroke fill markers"/><path fill="none" stroke="#2d70b3" stroke-linecap="round" stroke-linejoin="round" stroke-miterlimit="10" stroke-width="2.8" d="M118.914 1788.85v0l22.061-12.365 26.052-13.018 31.739-14.319 37.893-15.62 47.856-18.225 60.361-21.478 81.064-27.336 153.732-50.117 137.895-45.56 94.31-32.543 79.045-28.638 69.912-26.686 64.535-26.034 59.37-25.384 54.484-24.732 49.923-24.082 46.925-24.082 44.039-24.082 41.275-24.082 38.644-24.082 36.148-24.082 34.672-24.733 32.33-24.732 30.894-25.384 28.727-25.384 27.36-26.034 25.982-26.685 24.607-27.337 23.757-28.638 22.32-29.288 20.913-29.94 19.142-29.94 17.878-30.59 16.32-30.59 15.189-31.242 13.82-31.242 12.816-31.892 11.843-32.543 11.11-33.845 10.166-34.496 9.427-35.797 8.673-37.1 7.914-38.4 7.265-40.354 6.574-42.306 5.857-44.258 5.187-46.862 4.473-49.466 3.768-52.72 3.045-56.625 2.259-60.53 1.443-65.086.584-70.944.01-10.414" class="dcg-svg-curve" paint-order="fill stroke markers"/></svg>