<svg xmlns="http://www.w3.org/2000/svg" viewBox="0 0 2021 2006"><path fill="#fff" d="M0 0h2021v2006H0z"/><path fill="none" stroke="#000" stroke-miterlimit="10" stroke-opacity=".9" stroke-width="10" d="M120 6v1780m0 0h1880" class="dcg-svg-axis-line" paint-order="fill stroke markers"/><g stroke-width="5"><g class="dcg-svg-axis-value" font-family="Arial" font-size="20" text-anchor="middle"><text x="49.351" y="910.605" fill="none" stroke="#fff" stroke-miterlimit="2" text-decoration="normal" transform="matrix(2 0 0 2 0 6)">0</text><text x="49.351" y="910.605" text-decoration="normal" transform="matrix(2 0 0 2 0 6)">0</text></g><path fill="none" stroke="#000" stroke-miterlimit="2" stroke-opacity=".9" stroke-width="10" d="M406 1778v16m286-16v16m284-16v16m286-16v16m286-16v16m286-16v16M112 1622h16m-16-164h16m-16-162h16m-16-164h16m-16-164h16m-16-164h16m-16-164h16m-16-164h16m-16-162h16m-16-164h16" class="dcg-svg-tickmark" paint-order="fill stroke markers"/><g class="dcg-svg-axis-value" font-family="Arial" font-size="20" text-anchor="middle"><text x="202.758" y="910.605" fill="none" stroke="#fff" stroke-miterlimit="2" text-decoration="normal" transform="matrix(2 0 0 2 0 6)">0.02</text><text x="202.758" y="910.605" text-decoration="normal" transform="matrix(2 0 0 2 0 6)">0.02</text></g><g class="dcg-svg-axis-value" font-family="Arial" font-size="20" text-anchor="middle"><text x="345.603" y="910.605" fill="none" stroke="#fff" stroke-miterlimit="2" text-decoration="normal" transform="matrix(2 0 0 2 0 6)">0.04</text><text x="345.603" y="910.605" text-decoration="normal" transform="matrix(2 0 0 2 0 6)">0.04</text></g><g class="dcg-svg-axis-value" font-family="Arial" font-size="20" text-anchor="middle"><text x="488.448" y="910.605" fill="none" stroke="#fff" stroke-miterlimit="2" text-decoration="normal" transform="matrix(2 0 0 2 0 6)">0.06</text><text x="488.448" y="910.605" text-decoration="normal" transform="matrix(2 0 0 2 0 6)">0.06</text></g><g class="dcg-svg-axis-value" font-family="Arial" font-size="20" text-anchor="middle"><text x="631.293" y="910.605" fill="none" stroke="#fff" stroke-miterlimit="2" text-decoration="normal" transform="matrix(2 0 0 2 0 6)">0.08</text><text x="631.293" y="910.605" text-decoration="normal" transform="matrix(2 0 0 2 0 6)">0.08</text></g><g class="dcg-svg-axis-value" font-family="Arial" font-size="20" text-anchor="middle"><text x="774.138" y="910.605" fill="none" stroke="#fff" stroke-miterlimit="2" text-decoration="normal" transform="matrix(2 0 0 2 0 6)">0.1</text><text x="774.138" y="910.605" text-decoration="normal" transform="matrix(2 0 0 2 0 6)">0.1</text></g><g class="dcg-svg-axis-value" font-family="Arial" font-size="20" text-anchor="middle"><text x="916.984" y="910.605" fill="none" stroke="#fff" stroke-miterlimit="2" text-decoration="normal" transform="matrix(2 0 0 2 0 6)">0.12</text><text x="916.984" y="910.605" text-decoration="normal" transform="matrix(2 0 0 2 0 6)">0.12</text></g><g class="dcg-svg-axis-value" font-family="Arial" font-size="20" text-anchor="middle"><text x="41.011" y="813.763" fill="none" stroke="#fff" stroke-miterlimit="2" text-decoration="normal" transform="matrix(2 0 0 2 0 6)">0.1</text><text x="41.011" y="813.763" text-decoration="normal" transform="matrix(2 0 0 2 0 6)">0.1</text></g><g class="dcg-svg-axis-value" font-family="Arial" font-size="20" text-anchor="middle"><text x="41.011" y="731.92" fill="none" stroke="#fff" stroke-miterlimit="2" text-decoration="normal" transform="matrix(2 0 0 2 0 6)">0.2</text><text x="41.011" y="731.92" text-decoration="normal" transform="matrix(2 0 0 2 0 6)">0.2</text></g><g class="dcg-svg-axis-value" font-family="Arial" font-size="20" text-anchor="middle"><text x="41.011" y="650.078" fill="none" stroke="#fff" stroke-miterlimit="2" text-decoration="normal" transform="matrix(2 0 0 2 0 6)">0.3</text><text x="41.011" y="650.078" text-decoration="normal" transform="matrix(2 0 0 2 0 6)">0.3</text></g><g class="dcg-svg-axis-value" font-family="Arial" font-size="20" text-anchor="middle"><text x="41.011" y="568.235" fill="none" stroke="#fff" stroke-miterlimit="2" text-decoration="normal" transform="matrix(2 0 0 2 0 6)">0.4</text><text x="41.011" y="568.235" text-decoration="normal" transform="matrix(2 0 0 2 0 6)">0.4</text></g><g class="dcg-svg-axis-value" font-family="Arial" font-size="20" text-anchor="middle"><text x="41.011" y="486.393" fill="none" stroke="#fff" stroke-miterlimit="2" text-decoration="normal" transform="matrix(2 0 0 2 0 6)">0.5</text><text x="41.011" y="486.393" text-decoration="normal" transform="matrix(2 0 0 2 0 6)">0.5</text></g><g class="dcg-svg-axis-value" font-family="Arial" font-size="20" text-anchor="middle"><text x="41.011" y="404.551" fill="none" stroke="#fff" stroke-miterlimit="2" text-decoration="normal" transform="matrix(2 0 0 2 0 6)">0.6</text><text x="41.011" y="404.551" text-decoration="normal" transform="matrix(2 0 0 2 0 6)">0.6</text></g><g class="dcg-svg-axis-value" font-family="Arial" font-size="20" text-anchor="middle"><text x="41.011" y="322.708" fill="none" stroke="#fff" stroke-miterlimit="2" text-decoration="normal" transform="matrix(2 0 0 2 0 6)">0.7</text><text x="41.011" y="322.708" text-decoration="normal" transform="matrix(2 0 0 2 0 6)">0.7</text></g><g class="dcg-svg-axis-value" font-family="Arial" font-size="20" text-anchor="middle"><text x="41.011" y="240.866" fill="none" stroke="#fff" stroke-miterlimit="2" text-decoration="normal" transform="matrix(2 0 0 2 0 6)">0.8</text><text x="41.011" y="240.866" text-decoration="normal" transform="matrix(2 0 0 2 0 6)">0.8</text></g><g class="dcg-svg-axis-value" font-family="Arial" font-size="20" text-anchor="middle"><text x="41.011" y="159.023" fill="none" stroke="#fff" stroke-miterlimit="2" text-decoration="normal" transform="matrix(2 0 0 2 0 6)">0.9</text><text x="41.011" y="159.023" text-decoration="normal" transform="matrix(2 0 0 2 0 6)">0.9</text></g><g class="dcg-svg-axis-value" font-family="Arial" font-size="20" text-anchor="middle"><text x="49.351" y="77.181" fill="none" stroke="#fff" stroke-miterlimit="2" text-decoration="normal" transform="matrix(2 0 0 2 0 6)">1</text><text x="49.351" y="77.181" text-decoration="normal" transform="matrix(2 0 0 2 0 6)">1</text></g></g><path fill="#fa7e19" fill-opacity=".1" d="M2006 0v1466.793c-230.237 2.421-460.616-6.725-690.747.349-64.131-.163-122.338 30.794-165.544 76.796-138.664 125.948-330.539 161.85-509.073 193.094-169.722 26.937-341.425 40.42-512.874 48.921 119.229-35.011 245.677-60.521 364.57-102.654 181.172-63.209 370.164-141.802 494.492-294.424 43.42-55.629 74.841-124.91 74.7-196-26.79 67.565-100.274 99.601-158.887 135.15-217.47 116.757-456.675 185.654-676.345 297.458-46.633 26.473-107.238 60.249-106.297 121.752 2.823-130.564-5.212-261.678 5.36-391.87 9.921-96.877 103.201-151.395 186.762-179.343 180.448-59.721 373.457-79.083 562.8-69.88 62.308 7.6 138.076 7.533 182.212 58.533 16.134 43.982-11.939-105.468-4.51-57.716-48.35-172.22-199.836-291.384-352.38-370.537-129.256-63.116-274.956-113.475-420.53-92.996C203.266 652 143.644 716.12 133.686 791.26c-14.932 78.839-12.18 159.51-13.69 239.357V0H2006ZM126.734 1786.03c-11.57 3.69-2.352-4.72 0 0z" class="dcg-svg-region" paint-order="stroke fill markers"/><path fill="none" stroke="#d40000" stroke-width="10" d="M119.825 1786.33c219.032-.94 441.725-46.686 633.104-156.162 120.741-69.971 231.206-170.496 282.435-303.114 17.6-45.452 26.957-94.126 27.068-142.887M119.825 1786.33c1.35-84.387-1.335-168.906 3.022-253.198 2.769-57.56 21.465-117.86 67.937-155.11 67.13-55.354 153.487-78.514 235.97-100.554 203.872-48.52 412.821-70.445 620.932-91.862l14.746-1.439M119.825 149.482c241.413 134.075 478.16 284.042 673.144 481.582 124.97 128.511 234.09 284.4 262.63 465.002 4.37 29.168 6.758 58.602 6.833 88.101" class="dcg-svg-curve"/><path d="M1077.432 1184.167a15 15 0 1 1 0-.016l-7.5.016a7.5 7.5 0 1 0 0 .01z" class="dcg-svg-point" paint-order="stroke fill markers"/><path fill="#fff" d="M1069.932 1184.167a7.5 7.5 0 1 1 0-.01z" class="dcg-svg-point" paint-order="stroke fill markers"/><path fill="none" stroke="#3584e5" stroke-linecap="round" stroke-linejoin="round" stroke-opacity=".676" stroke-width="10" d="m119.995 1522.691-.17 263.639m942.607-602.163 167.248-18.8M121.094 1786.184c204.81-26.462 409.909-71.072 597.656-159.341 120.077-58.319 236.691-140.061 299.836-261.069 28.822-55.965 43.84-118.667 43.846-181.607m167.248-18.8c261.78-27.94 523.988-51.588 786.32-73.683M119.995 149.704c82.777 62.553 174.297 112.77 259.53 171.972 206.752 139.75 408 297.697 552.182 504.05 72.744 105.397 129.876 228.18 130.725 358.441-238.049 29.838-477.568 57.334-710.173 118.011-72.784 22.633-154.059 42.967-205.308 103.504-25.86 33.14-26.204 76.98-26.956 117.009"/></svg>