<svg xmlns="http://www.w3.org/2000/svg" xml:space="preserve" viewBox="0 0 813.5 2400"><path fill="#fff" d="M0 0h811v2400H0z"/><g fill="none" stroke="#000" stroke-miterlimit="10" stroke-width="2" paint-order="fill stroke markers"><path stroke-opacity=".2" d="M231 0v730.765M395 0v730.765M559 0v730.765M725 0v730.765M65.338 587H800M65.338 443H800M65.338 301H800M65.338 157H800M65.338 13H800" class="dcg-svg-minor-gridline"/><path stroke-opacity=".25" d="M231 0v730.765M395 0v730.765M559 0v730.765M725 0v730.765M65.338 587H800M65.338 443H800M65.338 301H800M65.338 157H800M65.338 13H800" class="dcg-svg-major-gridline"/></g><path fill="none" stroke="#000" stroke-miterlimit="10" stroke-opacity=".9" stroke-width="3" d="M66 0v730m0 0h734" class="dcg-svg-axis-line" paint-order="fill stroke markers"/><g font-family="Arial" font-size="14" text-anchor="middle"><g class="dcg-svg-axis-value"><text x="23.776" y="381.19" fill="none" stroke="#fff" stroke-miterlimit="2" stroke-width="3" text-decoration="normal" transform="scale(2)">0</text><text x="23.776" y="381.19" text-decoration="normal" transform="scale(2)">0</text></g><g class="dcg-svg-axis-value"><text x="115.087" y="381.19" fill="none" stroke="#fff" stroke-miterlimit="2" stroke-width="3" text-decoration="normal" transform="scale(2)">0.05</text><text x="115.087" y="381.19" text-decoration="normal" transform="scale(2)">0.05</text></g><g class="dcg-svg-axis-value"><text x="197.504" y="381.19" fill="none" stroke="#fff" stroke-miterlimit="2" stroke-width="3" text-decoration="normal" transform="scale(2)">0.1</text><text x="197.504" y="381.19" text-decoration="normal" transform="scale(2)">0.1</text></g><g class="dcg-svg-axis-value"><text x="279.921" y="381.19" fill="none" stroke="#fff" stroke-miterlimit="2" stroke-width="3" text-decoration="normal" transform="scale(2)">0.15</text><text x="279.921" y="381.19" text-decoration="normal" transform="scale(2)">0.15</text></g><g class="dcg-svg-axis-value"><text x="362.339" y="381.19" fill="none" stroke="#fff" stroke-miterlimit="2" stroke-width="3" text-decoration="normal" transform="scale(2)">0.2</text><text x="362.339" y="381.19" text-decoration="normal" transform="scale(2)">0.2</text></g><g class="dcg-svg-axis-value"><text x="16.624" y="297.456" fill="none" stroke="#fff" stroke-miterlimit="2" stroke-width="3" text-decoration="normal" transform="scale(2)">0.25</text><text x="16.624" y="297.456" fill="#969696" text-decoration="normal" transform="scale(2)">0.25</text></g><g class="dcg-svg-axis-value"><text x="17.938" y="225.722" fill="none" stroke="#fff" stroke-miterlimit="2" stroke-width="3" text-decoration="normal" transform="scale(2)">0.5</text><text x="17.938" y="225.722" text-decoration="normal" transform="scale(2)">0.5</text></g><g class="dcg-svg-axis-value"><text x="16.624" y="153.988" fill="none" stroke="#fff" stroke-miterlimit="2" stroke-width="3" text-decoration="normal" transform="scale(2)">0.75</text><text x="16.624" y="153.988" fill="#969696" text-decoration="normal" transform="scale(2)">0.75</text></g><g class="dcg-svg-axis-value"><text x="23.776" y="82.254" fill="none" stroke="#fff" stroke-miterlimit="2" stroke-width="3" text-decoration="normal" transform="scale(2)">1</text><text x="23.776" y="82.254" text-decoration="normal" transform="scale(2)">1</text></g><g class="dcg-svg-axis-value dcg-svg-offcenter-axis-value"><text x="16.624" y="13.808" fill="none" stroke="#fff" stroke-miterlimit="2" stroke-width="3" text-decoration="normal" transform="scale(2)">1.25</text><text x="16.624" y="13.808" fill="#969696" text-decoration="normal" transform="scale(2)">1.25</text></g></g><path fill="none" stroke="#d40000" stroke-linecap="round" stroke-linejoin="round" stroke-miterlimit="10" stroke-width="5" d="M65.34 730.764h0l.02-88.84" class="dcg-svg-curve" paint-order="fill stroke markers"/><path fill="none" stroke="green" stroke-linecap="round" stroke-linejoin="round" stroke-miterlimit="10" stroke-width="5" d="M292.616 517.932h0l23.01-3.91M65.558 730.726c48.792-9.394 96.936-26.428 137.566-55.556 13.696-10.34 26.608-21.792 37.548-35.054 13.446-16.044 24.266-34.42 31.062-54.264 7.968-21.148 10.764-43.766 11.372-66.244M65.668 157.42c19.896 22.326 42.738 41.86 63.244 63.632 55.534 57.104 105.268 122.034 133.814 197.04 12.222 32.394 19.986 66.708 20.16 101.44m.64 0h0l32.1-5.51" class="dcg-svg-curve" paint-order="fill stroke markers"/><path fill="none" stroke="#d40000" stroke-linecap="round" stroke-linejoin="round" stroke-miterlimit="10" stroke-width="5" d="M488.992 488.992C596.164 475.284 703.56 463.416 811 452.022m-745.64 189.9c.15-19.314-.386-41.28 14.188-56.124 20.3-20.158 48.646-28.586 75.122-37.378 70.868-20.454 143.922-31.866 216.7-43.118 39.144-5.864 78.372-11.186 117.62-16.31" class="dcg-svg-curve" paint-order="fill stroke markers"/><g paint-order="stroke fill markers"><path d="M290.38 519.648a7.5 7.5 0 1 1 0-.008l-3.75.008a3.75 3.75 0 1 0 0 .004z" class="dcg-svg-point"/><path fill="#fff" d="M286.63 519.648a3.75 3.75 0 1 1 0-.004z" class="dcg-svg-point"/></g><g paint-order="stroke fill markers"><path d="M72.84 730.764a7.5 7.5 0 1 1 0-.008l-3.752.008a3.75 3.75 0 1 0 0 .004z" class="dcg-svg-point"/><path fill="#fff" d="M69.088 730.764a3.75 3.75 0 1 1 0-.004z" class="dcg-svg-point"/></g><g paint-order="stroke fill markers"><path d="M72.84 156.892a7.5 7.5 0 1 1 0-.008l-3.752.008a3.75 3.75 0 1 0 0 .004z" class="dcg-svg-point"/><path fill="#fff" d="M69.088 156.892a3.75 3.75 0 1 1 0-.004z" class="dcg-svg-point"/></g><g fill="none" stroke="#000" stroke-miterlimit="10" stroke-width="2" paint-order="fill stroke markers"><path stroke-opacity=".2" d="M155 800v730.765M243 800v730.765M331 800v730.765M421 800v730.765M509 800v730.765M599 800v730.765M687 800v730.765M775 800v730.765M65.338 1451H800m-734.662-80H800m-734.662-80H800m-734.662-80H800m-734.662-80H800m-734.662-80H800M65.338 971H800M65.338 891H800M65.338 811H800" class="dcg-svg-minor-gridline"/><path stroke-opacity=".25" d="M155 800v730.765M243 800v730.765M331 800v730.765M421 800v730.765M509 800v730.765M599 800v730.765M687 800v730.765M775 800v730.765M65.338 1451H800m-734.662-80H800m-734.662-80H800m-734.662-80H800m-734.662-80H800m-734.662-80H800M65.338 971H800M65.338 891H800M65.338 811H800" class="dcg-svg-major-gridline"/></g><path fill="none" stroke="#000" stroke-miterlimit="10" stroke-opacity=".9" stroke-width="3" d="M66 800v730m0 0h734" class="dcg-svg-axis-line" paint-order="fill stroke markers"/><g font-family="Arial" font-size="14" text-anchor="middle"><g class="dcg-svg-axis-value"><text x="23.776" y="381.19" fill="none" stroke="#fff" stroke-miterlimit="2" stroke-width="3" text-decoration="normal" transform="matrix(2 0 0 2 0 800)">0</text><text x="23.776" y="381.19" text-decoration="normal" transform="matrix(2 0 0 2 0 800)">0</text></g><g class="dcg-svg-axis-value"><text x="77.073" y="381.19" fill="none" stroke="#fff" stroke-miterlimit="2" stroke-width="3" text-decoration="normal" transform="matrix(2 0 0 2 0 800)">0.2</text><text x="77.073" y="381.19" text-decoration="normal" transform="matrix(2 0 0 2 0 800)">0.2</text></g><g class="dcg-svg-axis-value"><text x="121.478" y="381.19" fill="none" stroke="#fff" stroke-miterlimit="2" stroke-width="3" text-decoration="normal" transform="matrix(2 0 0 2 0 800)">0.4</text><text x="121.478" y="381.19" text-decoration="normal" transform="matrix(2 0 0 2 0 800)">0.4</text></g><g class="dcg-svg-axis-value"><text x="165.882" y="381.19" fill="none" stroke="#fff" stroke-miterlimit="2" stroke-width="3" text-decoration="normal" transform="matrix(2 0 0 2 0 800)">0.6</text><text x="165.882" y="381.19" text-decoration="normal" transform="matrix(2 0 0 2 0 800)">0.6</text></g><g class="dcg-svg-axis-value"><text x="210.286" y="381.19" fill="none" stroke="#fff" stroke-miterlimit="2" stroke-width="3" text-decoration="normal" transform="matrix(2 0 0 2 0 800)">0.8</text><text x="210.286" y="381.19" text-decoration="normal" transform="matrix(2 0 0 2 0 800)">0.8</text></g><g class="dcg-svg-axis-value"><text x="254.69" y="381.19" fill="none" stroke="#fff" stroke-miterlimit="2" stroke-width="3" text-decoration="normal" transform="matrix(2 0 0 2 0 800)">1</text><text x="254.69" y="381.19" text-decoration="normal" transform="matrix(2 0 0 2 0 800)">1</text></g><g class="dcg-svg-axis-value"><text x="299.094" y="381.19" fill="none" stroke="#fff" stroke-miterlimit="2" stroke-width="3" text-decoration="normal" transform="matrix(2 0 0 2 0 800)">1.2</text><text x="299.094" y="381.19" text-decoration="normal" transform="matrix(2 0 0 2 0 800)">1.2</text></g><g class="dcg-svg-axis-value"><text x="343.498" y="381.19" fill="none" stroke="#fff" stroke-miterlimit="2" stroke-width="3" text-decoration="normal" transform="matrix(2 0 0 2 0 800)">1.4</text><text x="343.498" y="381.19" text-decoration="normal" transform="matrix(2 0 0 2 0 800)">1.4</text></g><g class="dcg-svg-axis-value dcg-svg-offcenter-axis-value"><text x="387.269" y="381.19" fill="none" stroke="#fff" stroke-miterlimit="2" stroke-width="3" text-decoration="normal" transform="matrix(2 0 0 2 0 800)">1.6</text><text x="387.269" y="381.19" text-decoration="normal" transform="matrix(2 0 0 2 0 800)">1.6</text></g><g class="dcg-svg-axis-value"><text x="17.938" y="329.205" fill="none" stroke="#fff" stroke-miterlimit="2" stroke-width="3" text-decoration="normal" transform="matrix(2 0 0 2 0 800)">0.5</text><text x="17.938" y="329.205" text-decoration="normal" transform="matrix(2 0 0 2 0 800)">0.5</text></g><g class="dcg-svg-axis-value"><text x="23.776" y="289.219" fill="none" stroke="#fff" stroke-miterlimit="2" stroke-width="3" text-decoration="normal" transform="matrix(2 0 0 2 0 800)">1</text><text x="23.776" y="289.219" text-decoration="normal" transform="matrix(2 0 0 2 0 800)">1</text></g><g class="dcg-svg-axis-value"><text x="17.938" y="249.233" fill="none" stroke="#fff" stroke-miterlimit="2" stroke-width="3" text-decoration="normal" transform="matrix(2 0 0 2 0 800)">1.5</text><text x="17.938" y="249.233" text-decoration="normal" transform="matrix(2 0 0 2 0 800)">1.5</text></g><g class="dcg-svg-axis-value"><text x="23.776" y="209.247" fill="none" stroke="#fff" stroke-miterlimit="2" stroke-width="3" text-decoration="normal" transform="matrix(2 0 0 2 0 800)">2</text><text x="23.776" y="209.247" text-decoration="normal" transform="matrix(2 0 0 2 0 800)">2</text></g><g class="dcg-svg-axis-value"><text x="17.938" y="169.261" fill="none" stroke="#fff" stroke-miterlimit="2" stroke-width="3" text-decoration="normal" transform="matrix(2 0 0 2 0 800)">2.5</text><text x="17.938" y="169.261" text-decoration="normal" transform="matrix(2 0 0 2 0 800)">2.5</text></g><g class="dcg-svg-axis-value"><text x="23.776" y="129.275" fill="none" stroke="#fff" stroke-miterlimit="2" stroke-width="3" text-decoration="normal" transform="matrix(2 0 0 2 0 800)">3</text><text x="23.776" y="129.275" text-decoration="normal" transform="matrix(2 0 0 2 0 800)">3</text></g><g class="dcg-svg-axis-value"><text x="17.938" y="89.289" fill="none" stroke="#fff" stroke-miterlimit="2" stroke-width="3" text-decoration="normal" transform="matrix(2 0 0 2 0 800)">3.5</text><text x="17.938" y="89.289" text-decoration="normal" transform="matrix(2 0 0 2 0 800)">3.5</text></g><g class="dcg-svg-axis-value"><text x="23.776" y="49.303" fill="none" stroke="#fff" stroke-miterlimit="2" stroke-width="3" text-decoration="normal" transform="matrix(2 0 0 2 0 800)">4</text><text x="23.776" y="49.303" text-decoration="normal" transform="matrix(2 0 0 2 0 800)">4</text></g><g class="dcg-svg-axis-value dcg-svg-offcenter-axis-value"><text x="17.938" y="13.808" fill="none" stroke="#fff" stroke-miterlimit="2" stroke-width="3" text-decoration="normal" transform="matrix(2 0 0 2 0 800)">4.5</text><text x="17.938" y="13.808" text-decoration="normal" transform="matrix(2 0 0 2 0 800)">4.5</text></g></g><path fill="none" stroke="#d40000" stroke-linecap="round" stroke-linejoin="round" stroke-miterlimit="10" stroke-width="5" d="M65.34 1530.764h0l.018-27.762" class="dcg-svg-curve" paint-order="fill stroke markers"/><path fill="none" stroke="green" stroke-linecap="round" stroke-linejoin="round" stroke-miterlimit="10" stroke-width="5" d="M96.46 1471.264h0l2.378-.836m-33.34 60.278a38.26 38.26 0 0 0 6.352-3.36 29.386 29.386 0 0 0 5.58-4.45c2.044-2.434 4.26-4.736 6.196-7.252 1.916-2.764 3.29-5.848 4.8-8.84 1.2-2.974 2.286-5.984 3.096-9.09a80.68 80.68 0 0 0 2.154-11.09c.516-3.546.72-7.134.88-10.71l.08-3.454m.056-.55h0l1.766-.646m-31.102-100.376c4.296 9.768 9.174 19.28 13.5 29.034a251.602 251.602 0 0 1 7.398 20.644c4.04 13.25 6.902 26.9 7.946 40.726.174 3.54.422 7.074.492 10.618" class="dcg-svg-curve" paint-order="fill stroke markers"/><path fill="none" stroke="#d40000" stroke-linecap="round" stroke-linejoin="round" stroke-miterlimit="10" stroke-width="5" d="M65.358 1503c-2.212-22.962 24.29-29.206 41.088-35.034 97.046-26.474 197.08-40.11 294.504-65.13 79.216-20.706 161.544-42.918 227.02-94.39 46.138-35.806 70.536-92.844 75.708-149.992 8.962-95.748-4.312-191.688-12.256-287.042-2.6-27.474-5.29-54.94-7.926-82.412" class="dcg-svg-curve" paint-order="fill stroke markers"/><g paint-order="stroke fill markers"><path d="M102.14 1471.924a7.5 7.5 0 1 1 0-.008l-3.75.008a3.75 3.75 0 1 0 0 .004z" class="dcg-svg-point"/><path fill="#fff" d="M98.39 1471.924a3.75 3.75 0 1 1 0-.004z" class="dcg-svg-point"/></g><g paint-order="stroke fill markers"><path d="M72.84 1530.764a7.5 7.5 0 1 1 0-.008l-3.752.008a3.75 3.75 0 1 0 0 .004z" class="dcg-svg-point"/><path fill="#fff" d="M69.088 1530.764a3.75 3.75 0 1 1 0-.004z" class="dcg-svg-point"/></g><g paint-order="stroke fill markers"><path d="M72.84 1370.82a7.5 7.5 0 1 1 0-.006l-3.752.008a3.75 3.75 0 1 0 0 .004z" class="dcg-svg-point"/><path fill="#fff" d="M69.088 1370.82a3.75 3.75 0 1 1 0-.002z" class="dcg-svg-point"/></g><g fill="none" stroke="#000" stroke-miterlimit="10" stroke-width="2" paint-order="fill stroke markers"><path stroke-opacity=".2" d="M155 1600v730.765M243 1600v730.765M331 1600v730.765M421 1600v730.765M509 1600v730.765M599 1600v730.765M687 1600v730.765M775 1600v730.765M65.338 2253H800m-734.662-78H800m-734.662-78H800m-734.662-78H800m-734.662-78H800m-734.662-78H800m-734.662-78H800m-734.662-78H800m-734.662-78H800" class="dcg-svg-minor-gridline"/><path stroke-opacity=".25" d="M155 1600v730.765M243 1600v730.765M331 1600v730.765M421 1600v730.765M509 1600v730.765M599 1600v730.765M687 1600v730.765M775 1600v730.765M65.338 2253H800m-734.662-78H800m-734.662-78H800m-734.662-78H800m-734.662-78H800m-734.662-78H800m-734.662-78H800m-734.662-78H800m-734.662-78H800" class="dcg-svg-major-gridline"/></g><path fill="none" stroke="#000" stroke-miterlimit="10" stroke-opacity=".9" stroke-width="3" d="M66 1600v730m0 0h734" class="dcg-svg-axis-line" paint-order="fill stroke markers"/><g font-family="Arial" font-size="14" text-anchor="middle"><g class="dcg-svg-axis-value"><text x="23.776" y="381.19" fill="none" stroke="#fff" stroke-miterlimit="2" stroke-width="3" text-decoration="normal" transform="matrix(2 0 0 2 0 1600)">0</text><text x="23.776" y="381.19" text-decoration="normal" transform="matrix(2 0 0 2 0 1600)">0</text></g><g class="dcg-svg-axis-value"><text x="77.073" y="381.19" fill="none" stroke="#fff" stroke-miterlimit="2" stroke-width="3" text-decoration="normal" transform="matrix(2 0 0 2 0 1600)">0.2</text><text x="77.073" y="381.19" text-decoration="normal" transform="matrix(2 0 0 2 0 1600)">0.2</text></g><g class="dcg-svg-axis-value"><text x="121.478" y="381.19" fill="none" stroke="#fff" stroke-miterlimit="2" stroke-width="3" text-decoration="normal" transform="matrix(2 0 0 2 0 1600)">0.4</text><text x="121.478" y="381.19" text-decoration="normal" transform="matrix(2 0 0 2 0 1600)">0.4</text></g><g class="dcg-svg-axis-value"><text x="165.882" y="381.19" fill="none" stroke="#fff" stroke-miterlimit="2" stroke-width="3" text-decoration="normal" transform="matrix(2 0 0 2 0 1600)">0.6</text><text x="165.882" y="381.19" text-decoration="normal" transform="matrix(2 0 0 2 0 1600)">0.6</text></g><g class="dcg-svg-axis-value"><text x="210.286" y="381.19" fill="none" stroke="#fff" stroke-miterlimit="2" stroke-width="3" text-decoration="normal" transform="matrix(2 0 0 2 0 1600)">0.8</text><text x="210.286" y="381.19" text-decoration="normal" transform="matrix(2 0 0 2 0 1600)">0.8</text></g><g class="dcg-svg-axis-value"><text x="254.69" y="381.19" fill="none" stroke="#fff" stroke-miterlimit="2" stroke-width="3" text-decoration="normal" transform="matrix(2 0 0 2 0 1600)">1</text><text x="254.69" y="381.19" text-decoration="normal" transform="matrix(2 0 0 2 0 1600)">1</text></g><g class="dcg-svg-axis-value"><text x="299.094" y="381.19" fill="none" stroke="#fff" stroke-miterlimit="2" stroke-width="3" text-decoration="normal" transform="matrix(2 0 0 2 0 1600)">1.2</text><text x="299.094" y="381.19" text-decoration="normal" transform="matrix(2 0 0 2 0 1600)">1.2</text></g><g class="dcg-svg-axis-value"><text x="343.498" y="381.19" fill="none" stroke="#fff" stroke-miterlimit="2" stroke-width="3" text-decoration="normal" transform="matrix(2 0 0 2 0 1600)">1.4</text><text x="343.498" y="381.19" text-decoration="normal" transform="matrix(2 0 0 2 0 1600)">1.4</text></g><g class="dcg-svg-axis-value dcg-svg-offcenter-axis-value"><text x="387.269" y="381.19" fill="none" stroke="#fff" stroke-miterlimit="2" stroke-width="3" text-decoration="normal" transform="matrix(2 0 0 2 0 1600)">1.6</text><text x="387.269" y="381.19" text-decoration="normal" transform="matrix(2 0 0 2 0 1600)">1.6</text></g><g class="dcg-svg-axis-value"><text x="23.776" y="330.151" fill="none" stroke="#fff" stroke-miterlimit="2" stroke-width="3" text-decoration="normal" transform="matrix(2 0 0 2 0 1600)">5</text><text x="23.776" y="330.151" text-decoration="normal" transform="matrix(2 0 0 2 0 1600)">5</text></g><g class="dcg-svg-axis-value"><text x="19.883" y="291.112" fill="none" stroke="#fff" stroke-miterlimit="2" stroke-width="3" text-decoration="normal" transform="matrix(2 0 0 2 0 1600)">10</text><text x="19.883" y="291.112" text-decoration="normal" transform="matrix(2 0 0 2 0 1600)">10</text></g><g class="dcg-svg-axis-value"><text x="19.883" y="252.072" fill="none" stroke="#fff" stroke-miterlimit="2" stroke-width="3" text-decoration="normal" transform="matrix(2 0 0 2 0 1600)">15</text><text x="19.883" y="252.072" text-decoration="normal" transform="matrix(2 0 0 2 0 1600)">15</text></g><g class="dcg-svg-axis-value"><text x="19.883" y="213.033" fill="none" stroke="#fff" stroke-miterlimit="2" stroke-width="3" text-decoration="normal" transform="matrix(2 0 0 2 0 1600)">20</text><text x="19.883" y="213.033" text-decoration="normal" transform="matrix(2 0 0 2 0 1600)">20</text></g><g class="dcg-svg-axis-value"><text x="19.883" y="173.993" fill="none" stroke="#fff" stroke-miterlimit="2" stroke-width="3" text-decoration="normal" transform="matrix(2 0 0 2 0 1600)">25</text><text x="19.883" y="173.993" text-decoration="normal" transform="matrix(2 0 0 2 0 1600)">25</text></g><g class="dcg-svg-axis-value"><text x="19.883" y="134.954" fill="none" stroke="#fff" stroke-miterlimit="2" stroke-width="3" text-decoration="normal" transform="matrix(2 0 0 2 0 1600)">30</text><text x="19.883" y="134.954" text-decoration="normal" transform="matrix(2 0 0 2 0 1600)">30</text></g><g class="dcg-svg-axis-value"><text x="19.883" y="95.914" fill="none" stroke="#fff" stroke-miterlimit="2" stroke-width="3" text-decoration="normal" transform="matrix(2 0 0 2 0 1600)">35</text><text x="19.883" y="95.914" text-decoration="normal" transform="matrix(2 0 0 2 0 1600)">35</text></g><g class="dcg-svg-axis-value"><text x="19.883" y="56.875" fill="none" stroke="#fff" stroke-miterlimit="2" stroke-width="3" text-decoration="normal" transform="matrix(2 0 0 2 0 1600)">40</text><text x="19.883" y="56.875" text-decoration="normal" transform="matrix(2 0 0 2 0 1600)">40</text></g><g class="dcg-svg-axis-value"><text x="19.883" y="17.835" fill="none" stroke="#fff" stroke-miterlimit="2" stroke-width="3" text-decoration="normal" transform="matrix(2 0 0 2 0 1600)">45</text><text x="19.883" y="17.835" text-decoration="normal" transform="matrix(2 0 0 2 0 1600)">45</text></g></g><path fill="none" stroke="green" stroke-linecap="round" stroke-linejoin="round" stroke-miterlimit="10" stroke-width="5" d="M95.9 2324.976h0l2.914-.1m-32.798 5.864c3.234-.212 6.474-.336 9.702-.604 3.012-.352 6.036-.634 9.04-1.03 2.006-.442 4.046-.752 6.026-1.298 1.866-.62 3.468-1.794 5.114-2.832m-30.542-9.82c5.406 1.084 10.784 2.3 16.166 3.492 2.1.636 4.22 1.21 6.306 1.886l4.554 1.98" class="dcg-svg-curve" paint-order="fill stroke markers"/><path fill="none" stroke="#d40000" stroke-linecap="round" stroke-linejoin="round" stroke-miterlimit="10" stroke-width="5" d="M547.102 1592.188h0l-.122-3.188M65.358 2328.054c22.24-4.962 46.8-2.648 69.944-4.148 163.912-4.598 328.05-4.204 491.736-14.792 25.648-3.546 54.02-1.792 76.988-15.074 8.478-11.112-8.19-21.496-14.412-29.498-44.638-41.24-73.412-96.652-88.83-154.938-30.566-115.176-37.45-234.86-45.666-353.248-3.272-54.692-5.796-109.424-8.016-164.168" class="dcg-svg-curve" paint-order="fill stroke markers"/><g paint-order="stroke fill markers"><path d="M102.14 2325.02a7.5 7.5 0 1 1 0-.008l-3.75.008a3.75 3.75 0 1 0 0 .004z" class="dcg-svg-point"/><path fill="#fff" d="M98.39 2325.02a3.75 3.75 0 1 1 0-.004z" class="dcg-svg-point"/></g><g paint-order="stroke fill markers"><path d="M72.84 2330.764a7.5 7.5 0 1 1 0-.008l-3.752.008a3.75 3.75 0 1 0 0 .004z" class="dcg-svg-point"/><path fill="#fff" d="M69.088 2330.764a3.75 3.75 0 1 1 0-.004z" class="dcg-svg-point"/></g><g paint-order="stroke fill markers"><path d="M72.84 2315.15a7.5 7.5 0 1 1 0-.008l-3.752.008a3.75 3.75 0 1 0 0 .004z" class="dcg-svg-point"/><path fill="#fff" d="M69.088 2315.15a3.75 3.75 0 1 1 0-.004z" class="dcg-svg-point"/></g></svg>