<svg xmlns="http://www.w3.org/2000/svg" xml:space="preserve" viewBox="0 0 1983.574 3857.704"><path fill="#fff" d="M0 0h1983.574v3857.704H0z"/><path fill="none" stroke="#000" stroke-miterlimit="10" stroke-opacity=".9" stroke-width="4" d="M67.495 21v1848m0 0h1894" class="dcg-svg-axis-line" paint-order="fill stroke markers"/><g class="dcg-svg-axis-value" font-family="Arial" font-size="20" text-anchor="middle"><text x="42.74" y="944.505" fill="none" stroke="#fff" stroke-miterlimit="2" stroke-width="3" text-decoration="normal" transform="matrix(2 0 0 2 -38.505 21)">0</text><text x="42.74" y="944.505" text-decoration="normal" transform="matrix(2 0 0 2 -38.505 21)">0</text></g><path fill="none" stroke="#000" stroke-miterlimit="2" stroke-opacity=".9" stroke-width="4" d="M293.495 1861v16m226-16v16m226-16v16m226-16v16m224-16v16m226-16v16m226-16v16m226-16v16m-1814-188h16m-16-182h16m-16-180h16m-16-182h16m-16-180h16m-16-182h16m-16-180h16m-16-182h16m-16-180h16m-16-182h16" class="dcg-svg-tickmark" paint-order="fill stroke markers"/><g class="dcg-svg-axis-value" font-family="Arial" font-size="20" text-anchor="middle"><text x="166.117" y="944.505" fill="none" stroke="#fff" stroke-miterlimit="2" stroke-width="3" text-decoration="normal" transform="matrix(2 0 0 2 -38.505 21)">0.2</text><text x="166.117" y="944.505" text-decoration="normal" transform="matrix(2 0 0 2 -38.505 21)">0.2</text></g><g class="dcg-svg-axis-value" font-family="Arial" font-size="20" text-anchor="middle"><text x="278.932" y="944.505" fill="none" stroke="#fff" stroke-miterlimit="2" stroke-width="3" text-decoration="normal" transform="matrix(2 0 0 2 -38.505 21)">0.4</text><text x="278.932" y="944.505" text-decoration="normal" transform="matrix(2 0 0 2 -38.505 21)">0.4</text></g><g class="dcg-svg-axis-value" font-family="Arial" font-size="20" text-anchor="middle"><text x="391.748" y="944.505" fill="none" stroke="#fff" stroke-miterlimit="2" stroke-width="3" text-decoration="normal" transform="matrix(2 0 0 2 -38.505 21)">0.6</text><text x="391.748" y="944.505" text-decoration="normal" transform="matrix(2 0 0 2 -38.505 21)">0.6</text></g><g class="dcg-svg-axis-value" font-family="Arial" font-size="20" text-anchor="middle"><text x="504.564" y="944.505" fill="none" stroke="#fff" stroke-miterlimit="2" stroke-width="3" text-decoration="normal" transform="matrix(2 0 0 2 -38.505 21)">0.8</text><text x="504.564" y="944.505" text-decoration="normal" transform="matrix(2 0 0 2 -38.505 21)">0.8</text></g><g class="dcg-svg-axis-value" font-family="Arial" font-size="20" text-anchor="middle"><text x="617.379" y="944.505" fill="none" stroke="#fff" stroke-miterlimit="2" stroke-width="3" text-decoration="normal" transform="matrix(2 0 0 2 -38.505 21)">1</text><text x="617.379" y="944.505" text-decoration="normal" transform="matrix(2 0 0 2 -38.505 21)">1</text></g><g class="dcg-svg-axis-value" font-family="Arial" font-size="20" text-anchor="middle"><text x="730.195" y="944.505" fill="none" stroke="#fff" stroke-miterlimit="2" stroke-width="3" text-decoration="normal" transform="matrix(2 0 0 2 -38.505 21)">1.2</text><text x="730.195" y="944.505" text-decoration="normal" transform="matrix(2 0 0 2 -38.505 21)">1.2</text></g><g class="dcg-svg-axis-value" font-family="Arial" font-size="20" text-anchor="middle"><text x="843.011" y="944.505" fill="none" stroke="#fff" stroke-miterlimit="2" stroke-width="3" text-decoration="normal" transform="matrix(2 0 0 2 -38.505 21)">1.4</text><text x="843.011" y="944.505" text-decoration="normal" transform="matrix(2 0 0 2 -38.505 21)">1.4</text></g><g class="dcg-svg-axis-value" font-family="Arial" font-size="20" text-anchor="middle"><text x="955.826" y="944.505" fill="none" stroke="#fff" stroke-miterlimit="2" stroke-width="3" text-decoration="normal" transform="matrix(2 0 0 2 -38.505 21)">1.6</text><text x="955.826" y="944.505" text-decoration="normal" transform="matrix(2 0 0 2 -38.505 21)">1.6</text></g><g class="dcg-svg-axis-value" font-family="Arial" font-size="20" text-anchor="middle"><text x="34.4" y="839.036" fill="none" stroke="#fff" stroke-miterlimit="2" stroke-width="3" text-decoration="normal" transform="matrix(2 0 0 2 -38.505 21)">0.5</text><text x="34.4" y="839.036" text-decoration="normal" transform="matrix(2 0 0 2 -38.505 21)">0.5</text></g><g class="dcg-svg-axis-value" font-family="Arial" font-size="20" text-anchor="middle"><text x="42.74" y="748.566" fill="none" stroke="#fff" stroke-miterlimit="2" stroke-width="3" text-decoration="normal" transform="matrix(2 0 0 2 -38.505 21)">1</text><text x="42.74" y="748.566" text-decoration="normal" transform="matrix(2 0 0 2 -38.505 21)">1</text></g><g class="dcg-svg-axis-value" font-family="Arial" font-size="20" text-anchor="middle"><text x="34.4" y="658.096" fill="none" stroke="#fff" stroke-miterlimit="2" stroke-width="3" text-decoration="normal" transform="matrix(2 0 0 2 -38.505 21)">1.5</text><text x="34.4" y="658.096" text-decoration="normal" transform="matrix(2 0 0 2 -38.505 21)">1.5</text></g><g class="dcg-svg-axis-value" font-family="Arial" font-size="20" text-anchor="middle"><text x="42.74" y="567.626" fill="none" stroke="#fff" stroke-miterlimit="2" stroke-width="3" text-decoration="normal" transform="matrix(2 0 0 2 -38.505 21)">2</text><text x="42.74" y="567.626" text-decoration="normal" transform="matrix(2 0 0 2 -38.505 21)">2</text></g><g class="dcg-svg-axis-value" font-family="Arial" font-size="20" text-anchor="middle"><text x="34.4" y="477.156" fill="none" stroke="#fff" stroke-miterlimit="2" stroke-width="3" text-decoration="normal" transform="matrix(2 0 0 2 -38.505 21)">2.5</text><text x="34.4" y="477.156" text-decoration="normal" transform="matrix(2 0 0 2 -38.505 21)">2.5</text></g><g class="dcg-svg-axis-value" font-family="Arial" font-size="20" text-anchor="middle"><text x="42.74" y="386.686" fill="none" stroke="#fff" stroke-miterlimit="2" stroke-width="3" text-decoration="normal" transform="matrix(2 0 0 2 -38.505 21)">3</text><text x="42.74" y="386.686" text-decoration="normal" transform="matrix(2 0 0 2 -38.505 21)">3</text></g><g class="dcg-svg-axis-value" font-family="Arial" font-size="20" text-anchor="middle"><text x="34.4" y="296.216" fill="none" stroke="#fff" stroke-miterlimit="2" stroke-width="3" text-decoration="normal" transform="matrix(2 0 0 2 -38.505 21)">3.5</text><text x="34.4" y="296.216" text-decoration="normal" transform="matrix(2 0 0 2 -38.505 21)">3.5</text></g><g class="dcg-svg-axis-value" font-family="Arial" font-size="20" text-anchor="middle"><text x="42.74" y="205.746" fill="none" stroke="#fff" stroke-miterlimit="2" stroke-width="3" text-decoration="normal" transform="matrix(2 0 0 2 -38.505 21)">4</text><text x="42.74" y="205.746" text-decoration="normal" transform="matrix(2 0 0 2 -38.505 21)">4</text></g><g class="dcg-svg-axis-value" font-family="Arial" font-size="20" text-anchor="middle"><text x="34.4" y="115.276" fill="none" stroke="#fff" stroke-miterlimit="2" stroke-width="3" text-decoration="normal" transform="matrix(2 0 0 2 -38.505 21)">4.5</text><text x="34.4" y="115.276" text-decoration="normal" transform="matrix(2 0 0 2 -38.505 21)">4.5</text></g><g class="dcg-svg-axis-value" font-family="Arial" font-size="20" text-anchor="middle"><text x="42.74" y="24.806" fill="none" stroke="#fff" stroke-miterlimit="2" stroke-width="3" text-decoration="normal" transform="matrix(2 0 0 2 -38.505 21)">5</text><text x="42.74" y="24.806" text-decoration="normal" transform="matrix(2 0 0 2 -38.505 21)">5</text></g><path fill="#fa7e19" fill-opacity=".25" d="M444.901 609.875c74.628-2.682 106.527 80.08 122.05 140.166 37.123 130.79 28.339 270.011 66.185 400.333 13.604 53.162 73.471 75.817 122.529 58.48 169.58-47.784 293.93-182.224 416.648-300.881 43.84-45.363 111.512-98.884 175.901-59.013 91.973 53.324 158.189 157.677 270.147 171.39 53.936 5.308 74.38-56.581 79.97-95.526 1.387 173.558 36.641 345.054 36.129 518.524 1.059 83.18-45.784 164.563-123.832 197.186-145.403 68.352-308.907 81.21-466.344 101.168-311.969 30.778-625.296 48.841-938.648 56.784-32.237-6.955-57.548 2.477-66 35.399-14.514 21.512-40.977 30.09-65.363 34.356 33.98-28.283 67.22-69.845 67.745-118.647 2.243-3.176-49.498 67.678-37.717 50.23-17.433 5-41.486 75.467-35.92 39.736 2.528-41.339-13.786-106.155 40.68-119.829 32.81 3.073 39.29 10.41 28.064-28.96-8.97-28.03-21.642-73.842-56.647-74.226-17.927 10.215-9.83 81.244-12.16 33.614l.422-764.723c50.97-15.979 81.283-67.66 121.226-100.738 72.276-68.025 144.762-148.282 244.186-173.686 3.583-.38 7.166-.758 10.75-1.137M1967.494 15v628.437c-61.956-21.7-131.366-62.448-197.406-34.484-64.393 46.714-63.402 136.65-70.509 208.554-1.11 79.599-13.442-105.217-9.53-45.913-33.03-252.399-75.62-503.528-103.748-756.594h381.193zm-271.038 826.899c6.728 1.45-3.414 5.422 0 0m.268 4.663c4.603-2.248-.406 5.444 0 0zm.255 4.65c3.113-1.864.473 3.825 0 0m.234 4.627c1.834-2.214 1.072 3.562 0 0m.205 4.6c1.24-2.029.905 2.636 0 0m.145 4.54c.763-1.839.706 1.769 0 0m-.014 39.537c.682-1.434.646 1.617 0 0zm-.191 4.204c1.25-1.465.84 2.464 0 0m-.238 4.157c2.957.05-1 2.834.01 0m-.287 4.107c4.261-.025-2.133 4.567 0 0m-.336 4.06c3.211-3.721 2.145 6.307 0-.001M141.876 1730.717c.796 9.107 1.586-6.529 0 0zM69.623 1867.98c9.06-8.42-2.04 4.472 0 0z" class="dcg-svg-region" paint-order="stroke fill markers"/><path fill="none" stroke="#fa7e19" stroke-linecap="round" stroke-linejoin="round" stroke-miterlimit="10" stroke-width="10" d="M1776.693 605.73c18.782-7.415 39.562-8.05 59.326-4.887 24.948 3.607 49.134 11.292 72.815 19.776 23.106 8.333 45.867 17.62 68.661 26.768" class="dcg-svg-curve" paint-order="fill stroke markers"/><path fill="none" stroke="#2d70b3" stroke-linecap="round" stroke-linejoin="round" stroke-miterlimit="10" stroke-width="10" d="M68.722 1508.793h0l1.06 2.197" class="dcg-svg-curve" paint-order="fill stroke markers"/><path fill="none" stroke="#000" stroke-miterlimit="10" stroke-opacity=".9" stroke-width="4" d="M68.574 1965.205v1848m0 0h1894" class="dcg-svg-axis-line" paint-order="fill stroke markers"/><g class="dcg-svg-axis-value" font-family="Arial" font-size="20" text-anchor="middle"><text x="42.74" y="944.505" fill="none" stroke="#fff" stroke-miterlimit="2" stroke-width="3" text-decoration="normal" transform="matrix(2 0 0 2 -37.426 1965.205)">0</text><text x="42.74" y="944.505" text-decoration="normal" transform="matrix(2 0 0 2 -37.426 1965.205)">0</text></g><path fill="none" stroke="#000" stroke-miterlimit="2" stroke-opacity=".9" stroke-width="4" d="M356.574 3805.205v16m286-16v16m288-16v16m288-16v16m286-16v16m288-16v16m-1732-176h16m-16-168h16m-16-168h16m-16-168h16m-16-168h16m-16-168h16m-16-170h16m-16-168h16m-16-168h16m-16-168h16" class="dcg-svg-tickmark" paint-order="fill stroke markers"/><g class="dcg-svg-axis-value" font-family="Arial" font-size="20" text-anchor="middle"><text x="196.857" y="944.505" fill="none" stroke="#fff" stroke-miterlimit="2" stroke-width="3" text-decoration="normal" transform="matrix(2 0 0 2 -37.426 1965.205)">0.02</text><text x="196.857" y="944.505" text-decoration="normal" transform="matrix(2 0 0 2 -37.426 1965.205)">0.02</text></g><g class="dcg-svg-axis-value" font-family="Arial" font-size="20" text-anchor="middle"><text x="340.414" y="944.505" fill="none" stroke="#fff" stroke-miterlimit="2" stroke-width="3" text-decoration="normal" transform="matrix(2 0 0 2 -37.426 1965.205)">0.04</text><text x="340.414" y="944.505" text-decoration="normal" transform="matrix(2 0 0 2 -37.426 1965.205)">0.04</text></g><g class="dcg-svg-axis-value" font-family="Arial" font-size="20" text-anchor="middle"><text x="483.97" y="944.505" fill="none" stroke="#fff" stroke-miterlimit="2" stroke-width="3" text-decoration="normal" transform="matrix(2 0 0 2 -37.426 1965.205)">0.06</text><text x="483.97" y="944.505" text-decoration="normal" transform="matrix(2 0 0 2 -37.426 1965.205)">0.06</text></g><g class="dcg-svg-axis-value" font-family="Arial" font-size="20" text-anchor="middle"><text x="627.526" y="944.505" fill="none" stroke="#fff" stroke-miterlimit="2" stroke-width="3" text-decoration="normal" transform="matrix(2 0 0 2 -37.426 1965.205)">0.08</text><text x="627.526" y="944.505" text-decoration="normal" transform="matrix(2 0 0 2 -37.426 1965.205)">0.08</text></g><g class="dcg-svg-axis-value" font-family="Arial" font-size="20" text-anchor="middle"><text x="771.082" y="944.505" fill="none" stroke="#fff" stroke-miterlimit="2" stroke-width="3" text-decoration="normal" transform="matrix(2 0 0 2 -37.426 1965.205)">0.1</text><text x="771.082" y="944.505" text-decoration="normal" transform="matrix(2 0 0 2 -37.426 1965.205)">0.1</text></g><g class="dcg-svg-axis-value" font-family="Arial" font-size="20" text-anchor="middle"><text x="914.638" y="944.505" fill="none" stroke="#fff" stroke-miterlimit="2" stroke-width="3" text-decoration="normal" transform="matrix(2 0 0 2 -37.426 1965.205)">0.12</text><text x="914.638" y="944.505" text-decoration="normal" transform="matrix(2 0 0 2 -37.426 1965.205)">0.12</text></g><g class="dcg-svg-axis-value" font-family="Arial" font-size="20" text-anchor="middle"><text x="34.4" y="845.421" fill="none" stroke="#fff" stroke-miterlimit="2" stroke-width="3" text-decoration="normal" transform="matrix(2 0 0 2 -37.426 1965.205)">0.1</text><text x="34.4" y="845.421" text-decoration="normal" transform="matrix(2 0 0 2 -37.426 1965.205)">0.1</text></g><g class="dcg-svg-axis-value" font-family="Arial" font-size="20" text-anchor="middle"><text x="34.4" y="761.337" fill="none" stroke="#fff" stroke-miterlimit="2" stroke-width="3" text-decoration="normal" transform="matrix(2 0 0 2 -37.426 1965.205)">0.2</text><text x="34.4" y="761.337" text-decoration="normal" transform="matrix(2 0 0 2 -37.426 1965.205)">0.2</text></g><g class="dcg-svg-axis-value" font-family="Arial" font-size="20" text-anchor="middle"><text x="34.4" y="677.252" fill="none" stroke="#fff" stroke-miterlimit="2" stroke-width="3" text-decoration="normal" transform="matrix(2 0 0 2 -37.426 1965.205)">0.3</text><text x="34.4" y="677.252" text-decoration="normal" transform="matrix(2 0 0 2 -37.426 1965.205)">0.3</text></g><g class="dcg-svg-axis-value" font-family="Arial" font-size="20" text-anchor="middle"><text x="34.4" y="593.168" fill="none" stroke="#fff" stroke-miterlimit="2" stroke-width="3" text-decoration="normal" transform="matrix(2 0 0 2 -37.426 1965.205)">0.4</text><text x="34.4" y="593.168" text-decoration="normal" transform="matrix(2 0 0 2 -37.426 1965.205)">0.4</text></g><g class="dcg-svg-axis-value" font-family="Arial" font-size="20" text-anchor="middle"><text x="34.4" y="509.083" fill="none" stroke="#fff" stroke-miterlimit="2" stroke-width="3" text-decoration="normal" transform="matrix(2 0 0 2 -37.426 1965.205)">0.5</text><text x="34.4" y="509.083" text-decoration="normal" transform="matrix(2 0 0 2 -37.426 1965.205)">0.5</text></g><g class="dcg-svg-axis-value" font-family="Arial" font-size="20" text-anchor="middle"><text x="34.4" y="424.999" fill="none" stroke="#fff" stroke-miterlimit="2" stroke-width="3" text-decoration="normal" transform="matrix(2 0 0 2 -37.426 1965.205)">0.6</text><text x="34.4" y="424.999" text-decoration="normal" transform="matrix(2 0 0 2 -37.426 1965.205)">0.6</text></g><g class="dcg-svg-axis-value" font-family="Arial" font-size="20" text-anchor="middle"><text x="34.4" y="340.914" fill="none" stroke="#fff" stroke-miterlimit="2" stroke-width="3" text-decoration="normal" transform="matrix(2 0 0 2 -37.426 1965.205)">0.7</text><text x="34.4" y="340.914" text-decoration="normal" transform="matrix(2 0 0 2 -37.426 1965.205)">0.7</text></g><g class="dcg-svg-axis-value" font-family="Arial" font-size="20" text-anchor="middle"><text x="34.4" y="256.83" fill="none" stroke="#fff" stroke-miterlimit="2" stroke-width="3" text-decoration="normal" transform="matrix(2 0 0 2 -37.426 1965.205)">0.8</text><text x="34.4" y="256.83" text-decoration="normal" transform="matrix(2 0 0 2 -37.426 1965.205)">0.8</text></g><g class="dcg-svg-axis-value" font-family="Arial" font-size="20" text-anchor="middle"><text x="34.4" y="172.746" fill="none" stroke="#fff" stroke-miterlimit="2" stroke-width="3" text-decoration="normal" transform="matrix(2 0 0 2 -37.426 1965.205)">0.9</text><text x="34.4" y="172.746" text-decoration="normal" transform="matrix(2 0 0 2 -37.426 1965.205)">0.9</text></g><g class="dcg-svg-axis-value" font-family="Arial" font-size="20" text-anchor="middle"><text x="42.74" y="88.661" fill="none" stroke="#fff" stroke-miterlimit="2" stroke-width="3" text-decoration="normal" transform="matrix(2 0 0 2 -37.426 1965.205)">1</text><text x="42.74" y="88.661" text-decoration="normal" transform="matrix(2 0 0 2 -37.426 1965.205)">1</text></g><path fill="#fa7e19" fill-opacity=".25" d="M1968.574 1959.205v1525.84c-230.502 2.39-461.14-6.48-691.54.078-63.601-.805-123.58 26.525-166.557 73.03-137.042 133.015-332.894 171.152-514.04 204.073-169.622 27.351-341.077 41.606-512.573 50.428 33.92-17.13 82.847-22.534 122.557-35.087 228.523-60.946 463.94-132.776 649.907-284.955 85.365-71.192 158.44-173.588 158.98-287.788-29.15 70.806-106.041 104.663-167.874 142.362-217.767 117.864-457.326 188.52-676.315 303.566-45.291 26.85-102.425 61.39-101.733 121.23 2.746-133.37-5.042-267.256 5.175-400.282 9.308-101.017 105.986-158.454 192.962-187.483 186.348-60.642 385.647-81.676 580.869-68.015 56.909 8.553 128.954 10.368 164.637 62.22 8.796.665-10.852-82.065-8.106-69.522-52.114-177.48-208.476-300.831-367.135-381.732-129.346-61.58-275.919-112.493-420.636-85.51-76.84 13.71-127.415 84.513-135.87 158.942-12.255 75.158-10.77 151.6-11.896 227.497V1959.205h1899.188zM73.544 3812.015c22.885-5.66-3.548 4.586 0 0z" class="dcg-svg-region" paint-order="stroke fill markers"/><path fill="none" stroke="#fa7e19" stroke-linecap="round" stroke-linejoin="round" stroke-miterlimit="10" stroke-width="10" d="M77.401 3812.969h0l1.614-.142.192.04" class="dcg-svg-curve" paint-order="fill stroke markers"/><path fill="none" stroke="#2d70b3" stroke-linecap="round" stroke-linejoin="round" stroke-miterlimit="10" stroke-width="10" d="M1017.936 3194.508h0l64.285-7.587 77.558-8.812" class="dcg-svg-curve" paint-order="fill stroke markers"/><path fill="none" stroke="#2d70b3" stroke-linecap="round" stroke-linejoin="round" stroke-miterlimit="10" stroke-width="10" d="M1019.743 3194.283h0l41.716-4.942 98.32-11.232" class="dcg-svg-curve" paint-order="fill stroke markers"/><path fill="none" stroke="#fa7e19" stroke-linecap="round" stroke-linejoin="round" stroke-width="10" d="m69.386 3771.982-.812 41.223m.812-785.108.003 433.69m0 0c.813-64.861 1.602-137.708 48.535-188.266 56.557-61.02 138.978-87.692 216.765-110.122 149.102-38.542 303.96-55.197 457.85-50.806 65.703 3.728 134.978 7.059 194.142 38.745 13.624 7.691 24.473 20.201 29.713 34.68-3.875-123.053-77.37-231.73-164.915-313.09-123.88-113.062-279.103-191.053-442.763-226.705-80.446-15.25-169.8-24.104-244.587 16.23-58.297 32.599-79.835 101.555-86.637 164-7.898 66.884-7.27 134.406-8.106 201.644m1.444 784.726c134.895-37.071 271.843-67.552 403.34-116 142.097-52.082 283.617-116.151 397.656-217.733 77.816-69.075 140.178-164.119 144.383-270.735-2.091-4.698-8.732 21.528-16.111 26.69-45.462 55.234-110.815 88.547-172.29 122.738-191.217 98.893-395.712 168.311-590.74 258.829-52.907 27.077-110.227 52.355-148.951 99.09-12.677 16.035-18.494 36-18.731 56.283m10.61 40.864c232.338-12.845 466.009-31.267 692.596-86.864 123.056-31.104 247.089-77.979 339.349-168.383 33.614-33.631 74.15-63.214 122.899-68.072 81.17-10.834 163.603-6.206 245.262-6.797m0 0c163.332 1.046 326.661 2.75 489.998 2.334h8.474M68.318 1671.39 67.495 1869m.812-983.56c15.274-.371 26.638-11.915 38.385-20.188 35.075-31.327 67.453-65.53 101.188-98.277 29.934-29.603 61.108-58.044 94.02-84.305 17.294-13.905 35.273-26.849 54.093-38.613 14.766-10.03 31.144-17.57 47.546-24.434 13.325-5.046 27.094-8.788 41.362-9.748M142.463 1728.52c-.59-12.037-2.744-23.926-4.927-35.754-5.071-21.032-13.002-41.825-26.233-59.134-4.367-6.154-10.24-10.975-16.248-15.432-4.952-3.1-12.034-4.108-16.707-.018-6.52 6.883-7.493 16.94-8.645 25.914-.923 9.069-1.015 18.193-1.385 27.294m-.003 107.667c.824-12.643 1.499-26.019 8.74-36.934 5.948-9.615 15.706-16.37 26.099-20.434 9.829-3.427 21.274-5.402 30.99-.622 3.74 2.09 6.563 5.641 7.771 9.742m-72.831 137.545c10.747-8.717 21.998-16.864 32.414-25.958 22.704-22.863 36.256-53.834 39.797-85.7.127-3.785 2.162-13.181.363-13.872-4.88 18.191-17.211 33.042-28.907 47.34-11.533 13.468-23.818 26.378-34.24 40.742-5.334 7.204-9.434 15.546-10.204 24.585M444.9 609.875c58.398-4.061 93.65 52.949 110.059 101.325 46.348 133.842 40.452 278.091 70.585 415.269 8.962 41.497 37 87.326 84.582 87.107 82.972-1.146 156.662-48.172 223.516-92.913 102.601-70.2 184.218-165.063 276.762-246.911 35.265-31.579 88.581-53.443 133.011-26.976 91.05 50.226 154.047 148.127 259.681 172.074 39.47 10.17 79.1-18.017 86.253-57.33 19.684-88.364.586-179.414-9.297-267.91-33.11-229.338-68.801-458.33-94.988-688.61M71.224 1868.716c72.519-3.988 63.915-76.11 117.298-72.363 374.427-14.222 797.363-28.072 1168.434-82.804 113.437-24.856 242.57-40.021 327.174-127.804 68.972-79.54 49.94-193.093 44.101-289.738-18.07-197.303-50.627-398.1-13.55-595.101 9.278-36.902 24.728-78.352 62.012-95.177"/><path fill="none" stroke="#336fd7" stroke-linecap="round" stroke-linejoin="round" stroke-width="10" d="m68.355 1798.832-.86 70.168m.86-70.168c3.248-50.147 65.339-58.102 103.33-71.362 251.127-61.358 508.521-92.907 760.551-150.356 196.63-46.731 400.669-94.987 568.398-213.207 109.892-76.033 175.356-203.067 188.868-334.487 23.347-214.244-9.714-429.227-29.762-642.415C1646.253 259.66 1632.325 132.36 1618.961 5M69.782 1510.99c13.372 24.369 27.177 48.569 38.018 74.208 5.116 11.754 9.668 23.775 13.894 35.875 9.361 27.52 16.214 55.98 19.068 84.94 1.216 9.44 1.572 18.976 1.766 28.485 2.612 2.114 5.886-.979 8.806-1.287l1.856-.586m-84.123 136.181c12.136-4.514 23.15-11.32 32.808-19.927m0 0c9.15-8.863 17.369-18.876 22.748-30.502 8.573-15.052 12.797-32.154 15.532-49.128 1.677-11.03 2.074-22.184 2.585-33.313l10.45-3.31M69.398 3538.691l-.824 274.514m.824-274.514c.044-46.146 3.944-97.821 39.86-131.38 52.213-49.264 123.611-69.625 190.542-90.543 186.961-50.93 379.41-77.492 571.08-103.66 100.86-13.38 201.924-25.195 303.028-36.57m0 0c267.863-29.37 536.206-54.056 804.666-77.254m-1770.63-872.36c224.593 146.208 445.653 306.298 615.615 515.963 93.32 116.666 173.037 252.255 190.235 403.186a490.058 490.058 0 0 1 2.682 47.648l2.174.687.95-.103M70.333 3813.2c189.794-24.8 379.178-66.23 555.31-142.706 125.54-55.688 248.32-132.895 324.451-250.232 43.003-66.667 66.404-145.076 66.38-224.465M70.484 2133.084c17.455 15.307 37.283 27.541 56.325 40.718 26.973 17.816 54.055 35.466 81.133 53.122"/><path d="M84.176 3813.336a15 15 0 1 1 0-.016l-7.5.016a7.5 7.5 0 1 0 0 .01z" class="dcg-svg-point" paint-order="stroke fill markers"/><path fill="#fff" d="M76.676 3813.336a7.5 7.5 0 1 1 0-.01z" class="dcg-svg-point" paint-order="stroke fill markers"/><path d="M83.098 1869.13a15 15 0 1 1 0-.015l-7.5.016a7.5 7.5 0 1 0 0 .01z" class="dcg-svg-point" paint-order="stroke fill markers"/><path fill="#fff" d="M75.598 1869.13a7.5 7.5 0 1 1 0-.01z" class="dcg-svg-point" paint-order="stroke fill markers"/><g paint-order="stroke fill markers"><path d="M157.542 1736.003a15 15 0 1 1 0-.014l-7.5.014a7.5 7.5 0 1 0 0 .01z" class="dcg-svg-point"/><path fill="#fff" d="M150.042 1736.003a7.5 7.5 0 1 1 0-.01z" class="dcg-svg-point"/></g><path d="M83.098 1507.251a15 15 0 1 1 0-.014l-7.5.014a7.5 7.5 0 1 0 0 .01z" class="dcg-svg-point" paint-order="stroke fill markers"/><path fill="#fff" d="M75.598 1507.251a7.5 7.5 0 1 1 0-.01z" class="dcg-svg-point" paint-order="stroke fill markers"/><path d="M1031.476 3194.677a15 15 0 1 1 0-.016l-7.5.016a7.5 7.5 0 1 0 0 .01z" class="dcg-svg-point" paint-order="stroke fill markers"/><path fill="#fff" d="M1023.976 3194.677a7.5 7.5 0 1 1 0-.01z" class="dcg-svg-point" paint-order="stroke fill markers"/><path d="M84.176 2131.647a15 15 0 1 1 0-.015l-7.5.015a7.5 7.5 0 1 0 0 .01z" class="dcg-svg-point" paint-order="stroke fill markers"/><path fill="#fff" d="M76.676 2131.647a7.5 7.5 0 1 1 0-.01z" class="dcg-svg-point" paint-order="stroke fill markers"/></svg>