<svg xmlns="http://www.w3.org/2000/svg" viewBox="0 0 2000 2000"><path fill="#fff" d="M0 0h2000v2000H0z" class="dcg-svg-background"/><path fill="none" stroke="#000" stroke-miterlimit="10" stroke-opacity=".9" stroke-width="4" d="M140 0v1884m0 0h1860" class="dcg-svg-axis-line" paint-order="fill stroke markers"/><g class="dcg-svg-axis-value" font-family="Arial" font-size="20" text-anchor="middle"><text x="59.528" y="962.836" fill="none" stroke="#fff" stroke-miterlimit="2" stroke-width="3" text-decoration="normal" transform="scale(2)">0</text><text x="59.528" y="962.836" text-decoration="normal" transform="scale(2)">0</text></g><path fill="none" stroke="#000" stroke-miterlimit="2" stroke-opacity=".9" stroke-width="4" d="M716 1876v16m576-16v16m574-16v16M132 1562h16m-16-324h16m-16-324h16m-16-324h16m-16-324h16" class="dcg-svg-tickmark" paint-order="fill stroke markers"/><g class="dcg-svg-axis-value" font-family="Arial" font-size="20" text-anchor="middle"><text x="357.848" y="962.836" fill="none" stroke="#fff" stroke-miterlimit="2" stroke-width="3" text-decoration="normal" transform="scale(2)">0.5</text><text x="357.848" y="962.836" text-decoration="normal" transform="scale(2)">0.5</text></g><g class="dcg-svg-axis-value" font-family="Arial" font-size="20" text-anchor="middle"><text x="645.606" y="962.836" fill="none" stroke="#fff" stroke-miterlimit="2" stroke-width="3" text-decoration="normal" transform="scale(2)">1</text><text x="645.606" y="962.836" text-decoration="normal" transform="scale(2)">1</text></g><g class="dcg-svg-axis-value" font-family="Arial" font-size="20" text-anchor="middle"><text x="933.364" y="962.836" fill="none" stroke="#fff" stroke-miterlimit="2" stroke-width="3" text-decoration="normal" transform="scale(2)">1.5</text><text x="933.364" y="962.836" text-decoration="normal" transform="scale(2)">1.5</text></g><g class="dcg-svg-axis-value" font-family="Arial" font-size="20" text-anchor="middle"><text x="51.188" y="785.999" fill="none" stroke="#fff" stroke-miterlimit="2" stroke-width="3" text-decoration="normal" transform="scale(2)">0.5</text><text x="51.188" y="785.999" text-decoration="normal" transform="scale(2)">0.5</text></g><g class="dcg-svg-axis-value" font-family="Arial" font-size="20" text-anchor="middle"><text x="59.528" y="624.162" fill="none" stroke="#fff" stroke-miterlimit="2" stroke-width="3" text-decoration="normal" transform="scale(2)">1</text><text x="59.528" y="624.162" text-decoration="normal" transform="scale(2)">1</text></g><g class="dcg-svg-axis-value" font-family="Arial" font-size="20" text-anchor="middle"><text x="51.188" y="462.324" fill="none" stroke="#fff" stroke-miterlimit="2" stroke-width="3" text-decoration="normal" transform="scale(2)">1.5</text><text x="51.188" y="462.324" text-decoration="normal" transform="scale(2)">1.5</text></g><g class="dcg-svg-axis-value" font-family="Arial" font-size="20" text-anchor="middle"><text x="59.528" y="300.487" fill="none" stroke="#fff" stroke-miterlimit="2" stroke-width="3" text-decoration="normal" transform="scale(2)">2</text><text x="59.528" y="300.487" text-decoration="normal" transform="scale(2)">2</text></g><g class="dcg-svg-axis-value" font-family="Arial" font-size="20" text-anchor="middle"><text x="51.188" y="138.649" fill="none" stroke="#fff" stroke-miterlimit="2" stroke-width="3" text-decoration="normal" transform="scale(2)">2.5</text><text x="51.188" y="138.649" text-decoration="normal" transform="scale(2)">2.5</text></g><path fill="none" stroke="#d40000" stroke-linecap="round" stroke-linejoin="round" stroke-miterlimit="10" stroke-width="10" d="M216.134 1610.746c367.598-80.63 736.82-183.265 1064.424-373.47 178.437-106.38 354.534-244.502 433.711-443.102 68.952-180.799 73.44-377.289 85.132-568.138 1.2-28.407 2.55-56.808 3.637-85.22" class="dcg-svg-curve" paint-order="fill stroke markers"/><path fill="none" stroke="#3c7df0" stroke-linecap="round" stroke-linejoin="round" stroke-miterlimit="10" stroke-opacity=".673" stroke-width="10" d="M217.24 1645.996c144.863-74.121 304.595-111.877 458.134-163.536 265.357-85.894 537.99-173.183 764.209-341.835 150.106-111.177 259.318-274.097 305.944-454.907 49.735-182.066 56.443-372.546 57.511-560.23" class="dcg-svg-curve" paint-order="fill stroke markers"/><path fill="#fa7e19" fill-opacity=".1" d="M143.777 124.778C189.065 95.263 206.388 37.628 235.876-6H663.53c22.831 197.595 19.663 397.763 51.055 594.336 10.138 49.195 26.91 122.235 88.624 124.404 83.355-10.923 141.836-81.448 196.791-138.765 125.523-142.712 205.158-317.039 309.02-474.491 24.65-36.208 70.21-86.207 117.106-54.968 72.154 56.162 108.344 144.69 164.579 215.066 36.302 43.435 75.278 104.325 137.618 106.192 54.938-10.483 61.272-78.714 68.928-124.187.31-121.594 13.287-116.482 7.078.343 3.72 283.98 33.48 566.952 36.564 850.894-.672 134.788-17.02 286.815-124.338 381.785-130.99 111.865-306.228 146.607-470.274 180.745-300.909 54.47-606.135 82.159-911.07 101.964-33.959 4.625-70.75-5.066-103.039 4.151-13.905 44.76-24.571 102.746-76.84 118.665C149.85 1881.96 140 1884 140 1884s39.753-69.749 38.896-55.807c24.01-48.903 37.01-107.426 34.82-159.888-12.567 68.642-66.46 123.492-73.396 193.023 4.682-69.857-10.008-142.783 11.536-210.426 6.412-24.999 50.714-54.946 62.461-19.027.385-62.903-9.096-135.553-43.32-191.977-23.04-27.59-28.117 57.84-29.115 41.134-1.594 18.33-1.562 89.485-1.56 34.068l.092-1389.987 3.363-.335m71.29 1510.215c1.566 7.145 1.932-5.023 0 0m.406 21.99c.885 2.265 1.19-2.099 0 0m-.55 4.42c-4.966 13.445 6.565-1.098 0 0" class="dcg-svg-region" paint-order="stroke fill markers"/><path d="M1818.038 125.113a15 15 0 1 1 0-.015l-7.5.015a7.5 7.5 0 1 0 0 .007z" class="dcg-svg-point" paint-order="stroke fill markers"/><path fill="#fff" d="M1810.538 125.113a7.5 7.5 0 1 1 0-.008z" class="dcg-svg-point" paint-order="stroke fill markers"/><path d="M231.134 1646.646a15 15 0 1 1 0-.014l-7.5.014a7.5 7.5 0 1 0 0 .01z" class="dcg-svg-point" paint-order="stroke fill markers"/><path fill="#fff" d="M223.634 1646.646a7.5 7.5 0 1 1 0-.01z" class="dcg-svg-point" paint-order="stroke fill markers"/></svg>