<svg xmlns="http://www.w3.org/2000/svg" viewBox="0 0 2000 2000"><path fill="#fff" d="M0 0h2000v2000H0z" class="dcg-svg-background"/><g class="dcg-svg-axis-value" font-family="Arial" font-size="20" text-anchor="middle"><text x="206.68" y="992.44" fill="none" stroke="#fff" stroke-miterlimit="2" stroke-width="3" text-decoration="normal" transform="scale(2)">1.42</text><text x="206.68" y="992.44" fill="#969696" text-decoration="normal" transform="scale(2)">1.42</text></g><g class="dcg-svg-axis-value" font-family="Arial" font-size="20" text-anchor="middle"><text x="206.68" y="992.44" fill="none" stroke="#fff" stroke-miterlimit="2" stroke-width="3" text-decoration="normal" transform="matrix(2 0 0 2 1228.909 0)">1.42</text><text x="206.68" y="992.44" fill="#969696" text-decoration="normal" transform="matrix(2 0 0 2 1228.909 0)">1.46</text></g><g class="dcg-svg-axis-value" font-family="Arial" font-size="20" text-anchor="middle"><text x="16.901" y="864.617" fill="none" stroke="#fff" stroke-miterlimit="2" stroke-width="3" text-decoration="normal" transform="scale(2)">2.4</text><text x="16.901" y="864.617" fill="#969696" text-decoration="normal" transform="scale(2)">2.4</text></g><g class="dcg-svg-axis-value" font-family="Arial" font-size="20" text-anchor="middle"><text x="16.901" y="706.798" fill="none" stroke="#fff" stroke-miterlimit="2" stroke-width="3" text-decoration="normal" transform="scale(2)">2.6</text><text x="16.901" y="706.798" fill="#969696" text-decoration="normal" transform="scale(2)">2.6</text></g><g class="dcg-svg-axis-value" font-family="Arial" font-size="20" text-anchor="middle"><text x="16.901" y="548.979" fill="none" stroke="#fff" stroke-miterlimit="2" stroke-width="3" text-decoration="normal" transform="scale(2)">2.8</text><text x="16.901" y="548.979" fill="#969696" text-decoration="normal" transform="scale(2)">2.8</text></g><g fill="#d40000" class="dcg-svg-axis-value" font-family="Arial" font-size="20" opacity=".2" text-anchor="middle"><text x="16.901" y="548.979" stroke="#fff" stroke-miterlimit="2" stroke-width="3" text-decoration="normal" transform="matrix(2 0 0 2 0 157.51)">2.8</text><text x="16.901" y="548.979" text-decoration="normal" transform="matrix(2 0 0 2 0 157.51)">e</text></g><g class="dcg-svg-axis-value" font-family="Arial" font-size="20" text-anchor="middle"><text x="8.562" y="391.16" fill="none" stroke="#fff" stroke-miterlimit="2" stroke-width="3" text-decoration="normal" transform="scale(2)">3</text><text x="8.562" y="391.16" fill="#969696" text-decoration="normal" transform="scale(2)">3</text></g><g class="dcg-svg-axis-value" font-family="Arial" font-size="20" text-anchor="middle"><text x="16.901" y="233.341" fill="none" stroke="#fff" stroke-miterlimit="2" stroke-width="3" text-decoration="normal" transform="scale(2)">3.2</text><text x="16.901" y="233.341" fill="#969696" text-decoration="normal" transform="scale(2)">3.2</text></g><g class="dcg-svg-axis-value" font-family="Arial" font-size="20" text-anchor="middle"><text x="16.901" y="75.522" fill="none" stroke="#fff" stroke-miterlimit="2" stroke-width="3" text-decoration="normal" transform="scale(2)">3.4</text><text x="16.901" y="75.522" fill="#969696" text-decoration="normal" transform="scale(2)">3.4</text></g><path fill="#fa7e19" fill-opacity=".142" d="M2006-6v204.015c-283.303 95.018-567.217 246.47-732.594 504.658-94.424 145.279-138.202 321.148-142.343 491.46-16.993-199.764-132.908-372.471-242.58-533.8C722.084 426.294 532.284 210.236 343.799-6H2006Zm-874.72 1204.165c-1.16-1.922 1.57-.18 0 0m.153 4.284c-.728-1.348.938-.166-.001 0m-.093 29.964c.622-11.329.178 17.292 0 0m.562 9.351c6.953 266.53 93.748 523.842 203.74 764.236H-6v-236.049c285.297-29.223 576.374-64.923 841.428-180.837 142.626-62.05 287.31-179.029 295.28-346.498-1.401-1.6 3.301-9.767 1.193-.852" class="dcg-svg-region" paint-order="stroke fill markers"/><path fill="none" stroke="#fa7e19" stroke-linecap="round" stroke-linejoin="round" stroke-miterlimit="10" stroke-width="10" d="M1917.146 229.646c32.754-12.273 65.66-24.083 98.854-35.116M1340.172 2016c-136.546-297.39-243.123-626.803-197.24-957.672 32.245-249.054 178.945-474.333 381.328-619.96 119.644-88.688 254.202-155.438 392.886-208.722" class="dcg-svg-curve" paint-order="fill stroke markers"/><path fill="none" stroke="#fa7e19" stroke-linecap="round" stroke-linejoin="round" stroke-miterlimit="10" stroke-width="10" d="M-16 1770.858c288.654-29.145 583.302-64.578 851.504-181.78 134.618-59.814 271.867-164.573 292.447-320.502 20.626-178.98-72.417-345.393-162.39-492.836C782.82 491.478 555.81 238.671 335.01-16" class="dcg-svg-curve" paint-order="fill stroke markers"/><path fill="none" stroke="#d40000" stroke-linecap="round" stroke-linejoin="round" stroke-miterlimit="10" stroke-width="10" d="M0 1216.044v0h2000" class="dcg-svg-curve" opacity=".2" paint-order="fill stroke markers"/><path fill="none" stroke="#2d70b3" stroke-linecap="round" stroke-linejoin="round" stroke-miterlimit="10" stroke-width="10" d="M754.713 2016c173.61-153.697 311.273-356.269 355.97-586.483 56.256-278.995-9.544-565.518-105.808-827.966C925.879 388.154 824.46 183.794 716.065-16" class="dcg-svg-curve" paint-order="fill stroke markers"/></svg>